<?xml version="1.0" encoding="UTF-8" standalone="no"?>
<!DOCTYPE svg PUBLIC "-//W3C//DTD SVG 1.1//EN"
 "http://www.w3.org/Graphics/SVG/1.1/DTD/svg11.dtd">
<!-- Generated by graphviz version 14.0.2 (20251019.1705)
 -->
<!-- Title: C:/Users/user/Documents/UnrealProjects/FacilityBreach/Plugins/WeaponryAssemblySystem/Source/WeaponryAssemblySystemEditor/Private/PropertyCustomizations/WeaponModAppliedCustomization.cpp Pages: 1 -->
<svg width="1180pt" height="428pt"
 viewBox="0.00 0.00 1180.00 428.00" xmlns="http://www.w3.org/2000/svg" xmlns:xlink="http://www.w3.org/1999/xlink">
<g id="graph0" class="graph" transform="scale(1 1) rotate(0) translate(4 424)">
<title>C:/Users/user/Documents/UnrealProjects/FacilityBreach/Plugins/WeaponryAssemblySystem/Source/WeaponryAssemblySystemEditor/Private/PropertyCustomizations/WeaponModAppliedCustomization.cpp</title>
<!-- Node1 -->
<g id="Node000001" class="node">
<title>Node1</title>
<g id="a_Node000001"><a xlink:title=" ">
<polygon fill="#999999" stroke="#666666" points="825.75,-420 578.75,-420 578.75,-340 825.75,-340 825.75,-420"/>
<text xml:space="preserve" text-anchor="start" x="586.75" y="-406.5" font-family="Helvetica,sans-Serif" font-size="10.00">C:/Users/user/Documents</text>
<text xml:space="preserve" text-anchor="start" x="586.75" y="-394.5" font-family="Helvetica,sans-Serif" font-size="10.00">/UnrealProjects/FacilityBreach</text>
<text xml:space="preserve" text-anchor="start" x="586.75" y="-382.5" font-family="Helvetica,sans-Serif" font-size="10.00">/Plugins/WeaponryAssemblySystem</text>
<text xml:space="preserve" text-anchor="start" x="586.75" y="-370.5" font-family="Helvetica,sans-Serif" font-size="10.00">/Source/WeaponryAssemblySystemEditor</text>
<text xml:space="preserve" text-anchor="start" x="586.75" y="-358.5" font-family="Helvetica,sans-Serif" font-size="10.00">/Private/PropertyCustomizations/WeaponModApplied</text>
<text xml:space="preserve" text-anchor="middle" x="702.25" y="-346.5" font-family="Helvetica,sans-Serif" font-size="10.00">Customization.cpp</text>
</a>
</g>
</g>
<!-- Node2 -->
<g id="Node000002" class="node">
<title>Node2</title>
<g id="a_Node000002"><a xlink:href="../../dd/d63/_weapon_mod_applied_customization_8h.html" target="_top" xlink:title=" ">
<polygon fill="white" stroke="#666666" points="176.5,-180 0,-180 0,-148 176.5,-148 176.5,-180"/>
<text xml:space="preserve" text-anchor="start" x="8" y="-166.5" font-family="Helvetica,sans-Serif" font-size="10.00">PropertyCustomizations</text>
<text xml:space="preserve" text-anchor="middle" x="88.25" y="-154.5" font-family="Helvetica,sans-Serif" font-size="10.00">/WeaponModAppliedCustomization.h</text>
</a>
</g>
</g>
<!-- Node1&#45;&gt;Node2 -->
<g id="edge1_Node000001_Node000002" class="edge">
<title>Node1&#45;&gt;Node2</title>
<g id="a_edge1_Node000001_Node000002"><a xlink:title=" ">
<path fill="none" stroke="#63b8ff" d="M578.56,-371.23C492.91,-362.45 377.76,-343.76 283.25,-304 215.07,-275.32 147.47,-219.36 112.58,-187.9"/>
<polygon fill="#63b8ff" stroke="#63b8ff" points="115.29,-185.64 105.55,-181.48 110.57,-190.81 115.29,-185.64"/>
</a>
</g>
</g>
<!-- Node4 -->
<g id="Node000004" class="node">
<title>Node4</title>
<g id="a_Node000004"><a xlink:href="../../d9/d6d/_weapon_modificator_customization_8h.html" target="_top" xlink:title=" ">
<polygon fill="white" stroke="#666666" points="368,-180 194.5,-180 194.5,-148 368,-148 368,-180"/>
<text xml:space="preserve" text-anchor="start" x="202.5" y="-166.5" font-family="Helvetica,sans-Serif" font-size="10.00">PropertyCustomizations</text>
<text xml:space="preserve" text-anchor="middle" x="281.25" y="-154.5" font-family="Helvetica,sans-Serif" font-size="10.00">/WeaponModificatorCustomization.h</text>
</a>
</g>
</g>
<!-- Node1&#45;&gt;Node4 -->
<g id="edge3_Node000001_Node000004" class="edge">
<title>Node1&#45;&gt;Node4</title>
<g id="a_edge3_Node000001_Node000004"><a xlink:title=" ">
<path fill="none" stroke="#63b8ff" d="M578.47,-358.31C454.3,-334.71 275.81,-292.02 235.25,-236 223.84,-220.24 236.55,-201.78 251.48,-187.63"/>
<polygon fill="#63b8ff" stroke="#63b8ff" points="253.53,-190.49 258.73,-181.26 248.91,-185.24 253.53,-190.49"/>
</a>
</g>
</g>
<!-- Node5 -->
<g id="Node000005" class="node">
<title>Node5</title>
<g id="a_Node000005"><a xlink:href="../../d9/d6d/_modification_applied_8h.html" target="_top" xlink:title=" ">
<polygon fill="white" stroke="#666666" points="563.25,-304 451.25,-304 451.25,-272 563.25,-272 563.25,-304"/>
<text xml:space="preserve" text-anchor="start" x="459.25" y="-290.5" font-family="Helvetica,sans-Serif" font-size="10.00">WeaponArchitecture</text>
<text xml:space="preserve" text-anchor="middle" x="507.25" y="-278.5" font-family="Helvetica,sans-Serif" font-size="10.00">/ModificationApplied.h</text>
</a>
</g>
</g>
<!-- Node1&#45;&gt;Node5 -->
<g id="edge5_Node000001_Node000005" class="edge">
<title>Node1&#45;&gt;Node5</title>
<g id="a_edge5_Node000001_Node000005"><a xlink:title=" ">
<path fill="none" stroke="#63b8ff" d="M616.72,-339.52C593.93,-329 570.24,-318.07 550.76,-309.08"/>
<polygon fill="#63b8ff" stroke="#63b8ff" points="552.33,-305.95 541.78,-304.94 549.39,-312.31 552.33,-305.95"/>
</a>
</g>
</g>
<!-- Node6 -->
<g id="Node000006" class="node">
<title>Node6</title>
<g id="a_Node000006"><a xlink:href="../../da/d54/_weapon_architecture_8h.html" target="_top" xlink:title=" ">
<polygon fill="white" stroke="#666666" points="635.25,-236 523.25,-236 523.25,-216 635.25,-216 635.25,-236"/>
<text xml:space="preserve" text-anchor="middle" x="579.25" y="-222.5" font-family="Helvetica,sans-Serif" font-size="10.00">WeaponArchitecture.h</text>
</a>
</g>
</g>
<!-- Node1&#45;&gt;Node6 -->
<g id="edge27_Node000001_Node000006" class="edge">
<title>Node1&#45;&gt;Node6</title>
<g id="a_edge27_Node000001_Node000006"><a xlink:title=" ">
<path fill="none" stroke="#63b8ff" d="M670.57,-339.86C645.91,-309.38 612.8,-268.46 593.98,-245.2"/>
<polygon fill="#63b8ff" stroke="#63b8ff" points="596.81,-243.14 587.8,-237.57 591.37,-247.54 596.81,-243.14"/>
</a>
</g>
</g>
<!-- Node8 -->
<g id="Node000008" class="node">
<title>Node8</title>
<g id="a_Node000008"><a xlink:href="../../d2/d80/_modification_struct_data_8h.html" target="_top" xlink:title=" ">
<polygon fill="white" stroke="#666666" points="803.75,-180 676.75,-180 676.75,-148 803.75,-148 803.75,-180"/>
<text xml:space="preserve" text-anchor="start" x="684.75" y="-166.5" font-family="Helvetica,sans-Serif" font-size="10.00">WeaponArchitecture</text>
<text xml:space="preserve" text-anchor="middle" x="740.25" y="-154.5" font-family="Helvetica,sans-Serif" font-size="10.00">/ModificationStructData.h</text>
</a>
</g>
</g>
<!-- Node1&#45;&gt;Node8 -->
<g id="edge22_Node000001_Node000008" class="edge">
<title>Node1&#45;&gt;Node8</title>
<g id="a_edge22_Node000001_Node000008"><a xlink:title=" ">
<path fill="none" stroke="#63b8ff" d="M709.22,-339.75C716.88,-296.63 728.96,-228.58 735.56,-191.4"/>
<polygon fill="#63b8ff" stroke="#63b8ff" points="738.93,-192.44 737.24,-181.98 732.04,-191.21 738.93,-192.44"/>
</a>
</g>
</g>
<!-- Node15 -->
<g id="Node000015" class="node">
<title>Node15</title>
<g id="a_Node000015"><a xlink:title=" ">
<polygon fill="#e0e0e0" stroke="#999999" points="920.25,-298 820.25,-298 820.25,-278 920.25,-278 920.25,-298"/>
<text xml:space="preserve" text-anchor="middle" x="870.25" y="-284.5" font-family="Helvetica,sans-Serif" font-size="10.00">DetailWidgetRow.h</text>
</a>
</g>
</g>
<!-- Node1&#45;&gt;Node15 -->
<g id="edge19_Node000001_Node000015" class="edge">
<title>Node1&#45;&gt;Node15</title>
<g id="a_edge19_Node000001_Node000015"><a xlink:title=" ">
<path fill="none" stroke="#63b8ff" d="M775.94,-339.52C799.67,-326.81 824.51,-313.5 842.74,-303.74"/>
<polygon fill="#63b8ff" stroke="#63b8ff" points="844.16,-306.95 851.32,-299.14 840.85,-300.78 844.16,-306.95"/>
</a>
</g>
</g>
<!-- Node16 -->
<g id="Node000016" class="node">
<title>Node16</title>
<g id="a_Node000016"><a xlink:title=" ">
<polygon fill="#e0e0e0" stroke="#999999" points="1056.62,-298 937.88,-298 937.88,-278 1056.62,-278 1056.62,-298"/>
<text xml:space="preserve" text-anchor="middle" x="997.25" y="-284.5" font-family="Helvetica,sans-Serif" font-size="10.00">IDetailChildrenBuilder.h</text>
</a>
</g>
</g>
<!-- Node1&#45;&gt;Node16 -->
<g id="edge20_Node000001_Node000016" class="edge">
<title>Node1&#45;&gt;Node16</title>
<g id="a_edge20_Node000001_Node000016"><a xlink:title=" ">
<path fill="none" stroke="#63b8ff" d="M826.07,-341.22C872.26,-327.13 921.62,-312.07 955.41,-301.77"/>
<polygon fill="#63b8ff" stroke="#63b8ff" points="956.25,-305.17 964.8,-298.9 954.21,-298.47 956.25,-305.17"/>
</a>
</g>
</g>
<!-- Node17 -->
<g id="Node000017" class="node">
<title>Node17</title>
<g id="a_Node000017"><a xlink:title=" ">
<polygon fill="#e0e0e0" stroke="#999999" points="1171.75,-298 1074.75,-298 1074.75,-278 1171.75,-278 1171.75,-298"/>
<text xml:space="preserve" text-anchor="middle" x="1123.25" y="-284.5" font-family="Helvetica,sans-Serif" font-size="10.00">IPropertyUtilities.h</text>
</a>
</g>
</g>
<!-- Node1&#45;&gt;Node17 -->
<g id="edge21_Node000001_Node000017" class="edge">
<title>Node1&#45;&gt;Node17</title>
<g id="a_edge21_Node000001_Node000017"><a xlink:title=" ">
<path fill="none" stroke="#63b8ff" d="M826.07,-354.99C896.39,-340.96 985.96,-322.43 1065.25,-304 1069.01,-303.13 1072.9,-302.19 1076.8,-301.23"/>
<polygon fill="#63b8ff" stroke="#63b8ff" points="1077.42,-304.68 1086.27,-298.85 1075.72,-297.89 1077.42,-304.68"/>
</a>
</g>
</g>
<!-- Node18 -->
<g id="Node000018" class="node">
<title>Node18</title>
<g id="a_Node000018"><a xlink:href="../../d3/d94/_w_a_s_editor_8h.html" target="_top" xlink:title=" ">
<polygon fill="white" stroke="#666666" points="802.38,-298 730.12,-298 730.12,-278 802.38,-278 802.38,-298"/>
<text xml:space="preserve" text-anchor="middle" x="766.25" y="-284.5" font-family="Helvetica,sans-Serif" font-size="10.00">WASEditor.h</text>
</a>
</g>
</g>
<!-- Node1&#45;&gt;Node18 -->
<g id="edge23_Node000001_Node000018" class="edge">
<title>Node1&#45;&gt;Node18</title>
<g id="a_edge23_Node000001_Node000018"><a xlink:title=" ">
<path fill="none" stroke="#63b8ff" d="M730.32,-339.52C738.23,-328.41 746.46,-316.83 753.04,-307.57"/>
<polygon fill="#63b8ff" stroke="#63b8ff" points="755.86,-309.66 758.8,-299.48 750.15,-305.6 755.86,-309.66"/>
</a>
</g>
</g>
<!-- Node3 -->
<g id="Node000003" class="node">
<title>Node3</title>
<g id="a_Node000003"><a xlink:title=" ">
<polygon fill="#e0e0e0" stroke="#999999" points="454.75,-100 375.75,-100 375.75,-80 454.75,-80 454.75,-100"/>
<text xml:space="preserve" text-anchor="middle" x="415.25" y="-86.5" font-family="Helvetica,sans-Serif" font-size="10.00">CoreMinimal.h</text>
</a>
</g>
</g>
<!-- Node2&#45;&gt;Node3 -->
<g id="edge2_Node000002_Node000003" class="edge">
<title>Node2&#45;&gt;Node3</title>
<g id="a_edge2_Node000002_Node000003"><a xlink:title=" ">
<path fill="none" stroke="#63b8ff" d="M158.4,-147.55C220.37,-133.91 309.26,-114.34 364.56,-102.16"/>
<polygon fill="#63b8ff" stroke="#63b8ff" points="365,-105.65 374.01,-100.08 363.49,-98.81 365,-105.65"/>
</a>
</g>
</g>
<!-- Node4&#45;&gt;Node3 -->
<g id="edge4_Node000004_Node000003" class="edge">
<title>Node4&#45;&gt;Node3</title>
<g id="a_edge4_Node000004_Node000003"><a xlink:title=" ">
<path fill="none" stroke="#63b8ff" d="M310,-147.55C332.97,-135.21 364.96,-118.02 387.63,-105.84"/>
<polygon fill="#63b8ff" stroke="#63b8ff" points="389.14,-109 396.29,-101.19 385.82,-102.84 389.14,-109"/>
</a>
</g>
</g>
<!-- Node5&#45;&gt;Node3 -->
<g id="edge6_Node000005_Node000003" class="edge">
<title>Node5&#45;&gt;Node3</title>
<g id="a_edge6_Node000005_Node000003"><a xlink:title=" ">
<path fill="none" stroke="#63b8ff" d="M491.88,-271.52C473.48,-251.99 443.28,-216.51 428.25,-180 419.17,-157.93 416.29,-130.5 415.46,-111.96"/>
<polygon fill="#63b8ff" stroke="#63b8ff" points="418.96,-111.9 415.19,-102 411.96,-112.09 418.96,-111.9"/>
</a>
</g>
</g>
<!-- Node5&#45;&gt;Node6 -->
<g id="edge7_Node000005_Node000006" class="edge">
<title>Node5&#45;&gt;Node6</title>
<g id="a_edge7_Node000005_Node000006"><a xlink:title=" ">
<path fill="none" stroke="#63b8ff" d="M525.79,-271.55C536,-263.04 548.68,-252.48 559.13,-243.77"/>
<polygon fill="#63b8ff" stroke="#63b8ff" points="561.36,-246.47 566.8,-237.38 556.87,-241.09 561.36,-246.47"/>
</a>
</g>
</g>
<!-- Node14 -->
<g id="Node000014" class="node">
<title>Node14</title>
<g id="a_Node000014"><a xlink:title=" ">
<polygon fill="#e0e0e0" stroke="#999999" points="398.62,-236 243.88,-236 243.88,-216 398.62,-216 398.62,-236"/>
<text xml:space="preserve" text-anchor="middle" x="321.25" y="-222.5" font-family="Helvetica,sans-Serif" font-size="10.00">ModificationApplied.generated.h</text>
</a>
</g>
</g>
<!-- Node5&#45;&gt;Node14 -->
<g id="edge18_Node000005_Node000014" class="edge">
<title>Node5&#45;&gt;Node14</title>
<g id="a_edge18_Node000005_Node000014"><a xlink:title=" ">
<path fill="none" stroke="#63b8ff" d="M459.35,-271.55C429.04,-261.77 390.29,-249.27 361.56,-240"/>
<polygon fill="#63b8ff" stroke="#63b8ff" points="362.72,-236.7 352.13,-236.96 360.57,-243.36 362.72,-236.7"/>
</a>
</g>
</g>
<!-- Node6&#45;&gt;Node3 -->
<g id="edge8_Node000006_Node000003" class="edge">
<title>Node6&#45;&gt;Node3</title>
<g id="a_edge8_Node000006_Node000003"><a xlink:title=" ">
<path fill="none" stroke="#63b8ff" d="M523.75,-215.58C499.63,-209.06 472.53,-198.15 453.25,-180 433.79,-161.68 423.84,-131.76 419.1,-111.74"/>
<polygon fill="#63b8ff" stroke="#63b8ff" points="422.53,-111.03 417.04,-101.96 415.67,-112.47 422.53,-111.03"/>
</a>
</g>
</g>
<!-- Node7 -->
<g id="Node000007" class="node">
<title>Node7</title>
<g id="a_Node000007"><a xlink:title=" ">
<polygon fill="#e0e0e0" stroke="#999999" points="682.12,-26 578.38,-26 578.38,-6 682.12,-6 682.12,-26"/>
<text xml:space="preserve" text-anchor="middle" x="630.25" y="-12.5" font-family="Helvetica,sans-Serif" font-size="10.00">Engine/DataAsset.h</text>
</a>
</g>
</g>
<!-- Node6&#45;&gt;Node7 -->
<g id="edge9_Node000006_Node000007" class="edge">
<title>Node6&#45;&gt;Node7</title>
<g id="a_edge9_Node000006_Node000007"><a xlink:title=" ">
<path fill="none" stroke="#63b8ff" d="M595.63,-215.51C607.4,-207.66 622.36,-195.34 629.25,-180 650.54,-132.6 641.8,-69.33 635.16,-37.35"/>
<polygon fill="#63b8ff" stroke="#63b8ff" points="638.63,-36.85 633.03,-27.86 631.8,-38.38 638.63,-36.85"/>
</a>
</g>
</g>
<!-- Node6&#45;&gt;Node8 -->
<g id="edge10_Node000006_Node000008" class="edge">
<title>Node6&#45;&gt;Node8</title>
<g id="a_edge10_Node000006_Node000008"><a xlink:title=" ">
<path fill="none" stroke="#63b8ff" d="M604.41,-215.62C626.76,-207.3 660.14,-194.86 688.22,-184.39"/>
<polygon fill="#63b8ff" stroke="#63b8ff" points="689.12,-187.79 697.27,-181.02 686.67,-181.23 689.12,-187.79"/>
</a>
</g>
</g>
<!-- Node13 -->
<g id="Node000013" class="node">
<title>Node13</title>
<g id="a_Node000013"><a xlink:title=" ">
<polygon fill="#e0e0e0" stroke="#999999" points="620.12,-174 462.38,-174 462.38,-154 620.12,-154 620.12,-174"/>
<text xml:space="preserve" text-anchor="middle" x="541.25" y="-160.5" font-family="Helvetica,sans-Serif" font-size="10.00">WeaponArchitecture.generated.h</text>
</a>
</g>
</g>
<!-- Node6&#45;&gt;Node13 -->
<g id="edge17_Node000006_Node000013" class="edge">
<title>Node6&#45;&gt;Node13</title>
<g id="a_edge17_Node000006_Node000013"><a xlink:title=" ">
<path fill="none" stroke="#63b8ff" d="M573.31,-215.62C567.93,-207.12 559.83,-194.33 553.12,-183.74"/>
<polygon fill="#63b8ff" stroke="#63b8ff" points="556.14,-181.97 547.83,-175.39 550.22,-185.71 556.14,-181.97"/>
</a>
</g>
</g>
<!-- Node8&#45;&gt;Node3 -->
<g id="edge11_Node000008_Node000003" class="edge">
<title>Node8&#45;&gt;Node3</title>
<g id="a_edge11_Node000008_Node000003"><a xlink:title=" ">
<path fill="none" stroke="#63b8ff" d="M676.43,-148.86C614.86,-135.22 522.87,-114.84 466.1,-102.26"/>
<polygon fill="#63b8ff" stroke="#63b8ff" points="466.88,-98.85 456.36,-100.11 465.37,-105.69 466.88,-98.85"/>
</a>
</g>
</g>
<!-- Node9 -->
<g id="Node000009" class="node">
<title>Node9</title>
<g id="a_Node000009"><a xlink:href="../../d5/d8d/_modification_description_data_asset_8h.html" target="_top" xlink:title=" ">
<polygon fill="white" stroke="#666666" points="828.5,-112 676,-112 676,-68 828.5,-68 828.5,-112"/>
<text xml:space="preserve" text-anchor="start" x="684" y="-98.5" font-family="Helvetica,sans-Serif" font-size="10.00">Miscellaneous/Description</text>
<text xml:space="preserve" text-anchor="start" x="684" y="-86.5" font-family="Helvetica,sans-Serif" font-size="10.00">Structs/ModificationDescription</text>
<text xml:space="preserve" text-anchor="middle" x="752.25" y="-74.5" font-family="Helvetica,sans-Serif" font-size="10.00">DataAsset.h</text>
</a>
</g>
</g>
<!-- Node8&#45;&gt;Node9 -->
<g id="edge12_Node000008_Node000009" class="edge">
<title>Node8&#45;&gt;Node9</title>
<g id="a_edge12_Node000008_Node000009"><a xlink:title=" ">
<path fill="none" stroke="#63b8ff" d="M742.79,-147.73C743.98,-140.64 745.43,-131.91 746.84,-123.45"/>
<polygon fill="#63b8ff" stroke="#63b8ff" points="750.27,-124.19 748.46,-113.75 743.36,-123.04 750.27,-124.19"/>
</a>
</g>
</g>
<!-- Node12 -->
<g id="Node000012" class="node">
<title>Node12</title>
<g id="a_Node000012"><a xlink:title=" ">
<polygon fill="#e0e0e0" stroke="#999999" points="1016.12,-100 846.38,-100 846.38,-80 1016.12,-80 1016.12,-100"/>
<text xml:space="preserve" text-anchor="middle" x="931.25" y="-86.5" font-family="Helvetica,sans-Serif" font-size="10.00">ModificationStructData.generated.h</text>
</a>
</g>
</g>
<!-- Node8&#45;&gt;Node12 -->
<g id="edge16_Node000008_Node000012" class="edge">
<title>Node8&#45;&gt;Node12</title>
<g id="a_edge16_Node000008_Node000012"><a xlink:title=" ">
<path fill="none" stroke="#63b8ff" d="M781.22,-147.55C815.3,-134.71 863.3,-116.61 895.76,-104.38"/>
<polygon fill="#63b8ff" stroke="#63b8ff" points="896.59,-107.81 904.71,-101.01 894.12,-101.26 896.59,-107.81"/>
</a>
</g>
</g>
<!-- Node9&#45;&gt;Node7 -->
<g id="edge13_Node000009_Node000007" class="edge">
<title>Node9&#45;&gt;Node7</title>
<g id="a_edge13_Node000009_Node000007"><a xlink:title=" ">
<path fill="none" stroke="#63b8ff" d="M715.98,-67.59C696.6,-56.16 673.22,-42.36 655.77,-32.06"/>
<polygon fill="#63b8ff" stroke="#63b8ff" points="657.95,-29.29 647.56,-27.22 654.4,-35.31 657.95,-29.29"/>
</a>
</g>
</g>
<!-- Node10 -->
<g id="Node000010" class="node">
<title>Node10</title>
<g id="a_Node000010"><a xlink:title=" ">
<polygon fill="#e0e0e0" stroke="#999999" points="979.5,-26 857,-26 857,-6 979.5,-6 979.5,-26"/>
<text xml:space="preserve" text-anchor="middle" x="918.25" y="-12.5" font-family="Helvetica,sans-Serif" font-size="10.00">UObject/SoftObjectPtr.h</text>
</a>
</g>
</g>
<!-- Node9&#45;&gt;Node10 -->
<g id="edge14_Node000009_Node000010" class="edge">
<title>Node9&#45;&gt;Node10</title>
<g id="a_edge14_Node000009_Node000010"><a xlink:title=" ">
<path fill="none" stroke="#63b8ff" d="M801.61,-67.59C828.96,-55.73 862.17,-41.32 886.15,-30.92"/>
<polygon fill="#63b8ff" stroke="#63b8ff" points="887.3,-34.24 895.08,-27.05 884.51,-27.82 887.3,-34.24"/>
</a>
</g>
</g>
<!-- Node11 -->
<g id="Node000011" class="node">
<title>Node11</title>
<g id="a_Node000011"><a xlink:title=" ">
<polygon fill="#e0e0e0" stroke="#999999" points="838.75,-32 699.75,-32 699.75,0 838.75,0 838.75,-32"/>
<text xml:space="preserve" text-anchor="start" x="707.75" y="-18.5" font-family="Helvetica,sans-Serif" font-size="10.00">ModificationDescriptionData</text>
<text xml:space="preserve" text-anchor="middle" x="769.25" y="-6.5" font-family="Helvetica,sans-Serif" font-size="10.00">Asset.generated.h</text>
</a>
</g>
</g>
<!-- Node9&#45;&gt;Node11 -->
<g id="edge15_Node000009_Node000011" class="edge">
<title>Node9&#45;&gt;Node11</title>
<g id="a_edge15_Node000009_Node000011"><a xlink:title=" ">
<path fill="none" stroke="#63b8ff" d="M757.26,-67.79C759.07,-60.09 761.15,-51.31 763.05,-43.24"/>
<polygon fill="#63b8ff" stroke="#63b8ff" points="766.44,-44.14 765.33,-33.6 759.63,-42.53 766.44,-44.14"/>
</a>
</g>
</g>
<!-- Node18&#45;&gt;Node3 -->
<g id="edge24_Node000018_Node000003" class="edge">
<title>Node18&#45;&gt;Node3</title>
<g id="a_edge24_Node000018_Node000003"><a xlink:title=" ">
<path fill="none" stroke="#63b8ff" d="M774.86,-277.7C796.24,-253.49 847.63,-187.65 813.25,-148 790.8,-122.1 568.48,-102.39 466.23,-94.62"/>
<polygon fill="#63b8ff" stroke="#63b8ff" points="466.7,-91.14 456.47,-93.88 466.18,-98.12 466.7,-91.14"/>
</a>
</g>
</g>
<!-- Node19 -->
<g id="Node000019" class="node">
<title>Node19</title>
<g id="a_Node000019"><a xlink:title=" ">
<polygon fill="#e0e0e0" stroke="#999999" points="993.75,-236 860.75,-236 860.75,-216 993.75,-216 993.75,-236"/>
<text xml:space="preserve" text-anchor="middle" x="927.25" y="-222.5" font-family="Helvetica,sans-Serif" font-size="10.00">Modules/ModuleManager.h</text>
</a>
</g>
</g>
<!-- Node18&#45;&gt;Node19 -->
<g id="edge25_Node000018_Node000019" class="edge">
<title>Node18&#45;&gt;Node19</title>
<g id="a_edge25_Node000018_Node000019"><a xlink:title=" ">
<path fill="none" stroke="#63b8ff" d="M791.41,-277.62C818.27,-267.62 861.06,-251.67 891.43,-240.35"/>
<polygon fill="#63b8ff" stroke="#63b8ff" points="892.44,-243.71 900.59,-236.94 889.99,-237.15 892.44,-243.71"/>
</a>
</g>
</g>
<!-- Node20 -->
<g id="Node000020" class="node">
<title>Node20</title>
<g id="a_Node000020"><a xlink:title=" ">
<polygon fill="#e0e0e0" stroke="#999999" points="1114.38,-236 1012.12,-236 1012.12,-216 1114.38,-216 1114.38,-236"/>
<text xml:space="preserve" text-anchor="middle" x="1063.25" y="-222.5" font-family="Helvetica,sans-Serif" font-size="10.00">Styling/SlateStyle.h</text>
</a>
</g>
</g>
<!-- Node18&#45;&gt;Node20 -->
<g id="edge26_Node000018_Node000020" class="edge">
<title>Node18&#45;&gt;Node20</title>
<g id="a_edge26_Node000018_Node000020"><a xlink:title=" ">
<path fill="none" stroke="#63b8ff" d="M792.23,-277.63C798.42,-275.6 805.03,-273.58 811.25,-272 846.17,-263.11 937.96,-247.43 1000.57,-237.12"/>
<polygon fill="#63b8ff" stroke="#63b8ff" points="1001.1,-240.58 1010.4,-235.51 999.97,-233.68 1001.1,-240.58"/>
</a>
</g>
</g>
</g>
</svg>
