<?xml version="1.0" encoding="UTF-8" standalone="no"?>
<!DOCTYPE svg PUBLIC "-//W3C//DTD SVG 1.1//EN"
 "http://www.w3.org/Graphics/SVG/1.1/DTD/svg11.dtd">
<!-- Generated by graphviz version 14.0.2 (20251019.1705)
 -->
<!-- Title: UWeaponNumericPropertyRuntimeNode Pages: 1 -->
<svg width="200pt" height="320pt"
 viewBox="0.00 0.00 200.00 320.00" xmlns="http://www.w3.org/2000/svg" xmlns:xlink="http://www.w3.org/1999/xlink">

<svg id="main" version="1.1" xmlns="http://www.w3.org/2000/svg" xmlns:xlink="http://www.w3.org/1999/xlink" xml:space="preserve" onload="init(evt)">
<style type="text/css"><![CDATA[
.node, .edge {opacity: 0.7;}
.node.selected, .edge.selected {opacity: 1;}
.edge:hover path { stroke: red; }
.edge:hover polygon { stroke: red; fill: red; }
]]></style>
<script type="application/ecmascript" xlink:href="../../svg.min.js"/>
<svg id="graph" class="graph">
<g id="graph0" class="graph" transform="scale(1 1) rotate(0) translate(4 316)">
<title>UWeaponNumericPropertyRuntimeNode</title>
<!-- Node1 -->
<g id="Node000001" class="node">
<title>Node1</title>
<g id="a_Node000001"><a xlink:title=" ">
<polygon fill="#999999" stroke="#666666" points="192.25,-88 0,-88 0,-68 192.25,-68 192.25,-88"/>
<text xml:space="preserve" text-anchor="middle" x="96.12" y="-74.5" font-family="Helvetica,sans-Serif" font-size="10.00">UWeaponNumericPropertyRuntimeNode</text>
</a>
</g>
</g>
<!-- Node6 -->
<g id="Node000006" class="node">
<title>Node6</title>
<g id="a_Node000006"><a xlink:href="../../d8/d18/a00948.html" target="_top" xlink:title=" ">
<polygon fill="white" stroke="#666666" points="182.12,-32 10.12,-32 10.12,0 182.12,0 182.12,-32"/>
<text xml:space="preserve" text-anchor="start" x="18.12" y="-18.5" font-family="Helvetica,sans-Serif" font-size="10.00">UWeaponNumericPropertyOverrider</text>
<text xml:space="preserve" text-anchor="middle" x="96.12" y="-6.5" font-family="Helvetica,sans-Serif" font-size="10.00">RuntimeNode</text>
</a>
</g>
</g>
<!-- Node1&#45;&gt;Node6 -->
<g id="edge5_Node000001_Node000006" class="edge">
<title>Node1&#45;&gt;Node6</title>
<g id="a_edge5_Node000001_Node000006"><a xlink:title=" ">
<path fill="none" stroke="#63b8ff" d="M96.12,-56.31C96.12,-48.37 96.12,-39.46 96.12,-32.14"/>
<polygon fill="#63b8ff" stroke="#63b8ff" points="92.63,-56.11 96.13,-66.11 99.63,-56.11 92.63,-56.11"/>
</a>
</g>
</g>
<!-- Node2 -->
<g id="Node000002" class="node">
<title>Node2</title>
<g id="a_Node000002"><a xlink:href="../../da/d17/a00964.html" target="_top" xlink:title=" ">
<polygon fill="white" stroke="#666666" points="173.88,-144 18.38,-144 18.38,-124 173.88,-124 173.88,-144"/>
<text xml:space="preserve" text-anchor="middle" x="96.12" y="-130.5" font-family="Helvetica,sans-Serif" font-size="10.00">UWeaponPropertyRuntimeNode</text>
</a>
</g>
</g>
<!-- Node2&#45;&gt;Node1 -->
<g id="edge1_Node000001_Node000002" class="edge">
<title>Node2&#45;&gt;Node1</title>
<g id="a_edge1_Node000001_Node000002"><a xlink:title=" ">
<path fill="none" stroke="#63b8ff" d="M96.12,-112.13C96.12,-103.9 96.12,-94.85 96.12,-88.3"/>
<polygon fill="#63b8ff" stroke="#63b8ff" points="92.63,-112.08 96.13,-122.08 99.63,-112.08 92.63,-112.08"/>
</a>
</g>
</g>
<!-- Node3 -->
<g id="Node000003" class="node">
<title>Node3</title>
<g id="a_Node000003"><a xlink:href="../../d9/dce/a00944.html" target="_top" xlink:title=" ">
<polygon fill="white" stroke="#666666" points="154.75,-200 37.5,-200 37.5,-180 154.75,-180 154.75,-200"/>
<text xml:space="preserve" text-anchor="middle" x="96.12" y="-186.5" font-family="Helvetica,sans-Serif" font-size="10.00">UWeaponMemberNode</text>
</a>
</g>
</g>
<!-- Node3&#45;&gt;Node2 -->
<g id="edge2_Node000002_Node000003" class="edge">
<title>Node3&#45;&gt;Node2</title>
<g id="a_edge2_Node000002_Node000003"><a xlink:title=" ">
<path fill="none" stroke="#63b8ff" d="M96.12,-168.13C96.12,-159.9 96.12,-150.85 96.12,-144.3"/>
<polygon fill="#63b8ff" stroke="#63b8ff" points="92.63,-168.08 96.13,-178.08 99.63,-168.08 92.63,-168.08"/>
</a>
</g>
</g>
<!-- Node4 -->
<g id="Node000004" class="node">
<title>Node4</title>
<g id="a_Node000004"><a xlink:href="../../db/d20/a00980.html" target="_top" xlink:title=" ">
<polygon fill="white" stroke="#666666" points="155.5,-256 36.75,-256 36.75,-236 155.5,-236 155.5,-256"/>
<text xml:space="preserve" text-anchor="middle" x="96.12" y="-242.5" font-family="Helvetica,sans-Serif" font-size="10.00">UWeaponRuntimeNode</text>
</a>
</g>
</g>
<!-- Node4&#45;&gt;Node3 -->
<g id="edge3_Node000003_Node000004" class="edge">
<title>Node4&#45;&gt;Node3</title>
<g id="a_edge3_Node000003_Node000004"><a xlink:title=" ">
<path fill="none" stroke="#63b8ff" d="M96.12,-224.13C96.12,-215.9 96.12,-206.85 96.12,-200.3"/>
<polygon fill="#63b8ff" stroke="#63b8ff" points="92.63,-224.08 96.13,-234.08 99.63,-224.08 92.63,-224.08"/>
</a>
</g>
</g>
<!-- Node5 -->
<g id="Node000005" class="node">
<title>Node5</title>
<g id="a_Node000005"><a xlink:title=" ">
<polygon fill="white" stroke="#666666" points="122.12,-312 70.12,-312 70.12,-292 122.12,-292 122.12,-312"/>
<text xml:space="preserve" text-anchor="middle" x="96.12" y="-298.5" font-family="Helvetica,sans-Serif" font-size="10.00">UObject</text>
</a>
</g>
</g>
<!-- Node5&#45;&gt;Node4 -->
<g id="edge4_Node000004_Node000005" class="edge">
<title>Node5&#45;&gt;Node4</title>
<g id="a_edge4_Node000004_Node000005"><a xlink:title=" ">
<path fill="none" stroke="#63b8ff" d="M96.12,-280.13C96.12,-271.9 96.12,-262.85 96.12,-256.3"/>
<polygon fill="#63b8ff" stroke="#63b8ff" points="92.63,-280.08 96.13,-290.08 99.63,-280.08 92.63,-280.08"/>
</a>
</g>
</g>
</g>
</svg>
</svg>

<style type='text/css'>
<![CDATA[
[data-mouse-over-selected='false'] { opacity: 0.7; }
[data-mouse-over-selected='true']  { opacity: 1.0; }
]]>
</style>
<script type="application/ecmascript"><![CDATA[
document.addEventListener('DOMContentLoaded', (event) => {
  highlightEdges();
  highlightAdjacentNodes();
});
]]></script>
</svg>
