<?xml version="1.0" encoding="UTF-8" standalone="no"?>
<!DOCTYPE svg PUBLIC "-//W3C//DTD SVG 1.1//EN"
 "http://www.w3.org/Graphics/SVG/1.1/DTD/svg11.dtd">
<!-- Generated by graphviz version 14.0.2 (20251019.1705)
 -->
<!-- Title: C:/Users/user/Documents/UnrealProjects/FacilityBreach/Plugins/WeaponryAssemblySystem/Source/WeaponryAssemblySystemRuntime/Public/Nodes/ReflectionNodes/WeaponCustomFunctionRuntimeNode.h Pages: 1 -->
<!--zoomable 776 -->

<svg id="main" version="1.1" xmlns="http://www.w3.org/2000/svg" xmlns:xlink="http://www.w3.org/1999/xlink" xml:space="preserve" onload="init(evt)">
<style type="text/css"><![CDATA[
.node, .edge {opacity: 0.7;}
.node.selected, .edge.selected {opacity: 1;}
.edge:hover path { stroke: red; }
.edge:hover polygon { stroke: red; fill: red; }
]]></style>

<defs>
  <circle id="rim" cx="0" cy="0" r="7"/>
  <circle id="rim2" cx="0" cy="0" r="3.5"/>
  <g id="zoomPlus">
    <use xlink:href="#rim" fill="#404040"><set attributeName="fill" to="#808080" begin="zoomplus.mouseover" end="zoomplus.mouseout"/></use>
    <path d="M-4,0h8M0,-4v8" fill="none" stroke="white" stroke-width="1.5" pointer-events="none"/>
  </g>
  <g id="zoomMin">
    <use xlink:href="#rim" fill="#404040"><set attributeName="fill" to="#808080" begin="zoomminus.mouseover" end="zoomminus.mouseout"/></use>
    <path d="M-4,0h8" fill="none" stroke="white" stroke-width="1.5" pointer-events="none"/>
  </g>
  <g id="arrowUp" transform="translate(30 24)">
    <use xlink:href="#rim"/>
    <path pointer-events="none" fill="none" stroke="white" stroke-width="1.5" d="M0,-3.0v7 M-2.5,-0.5L0,-3.0L2.5,-0.5"/>
  </g>
  <g id="arrowRight" transform="rotate(90) translate(36 -43)">
    <use xlink:href="#rim"/>
    <path pointer-events="none" fill="none" stroke="white" stroke-width="1.5" d="M0,-3.0v7 M-2.5,-0.5L0,-3.0L2.5,-0.5"/>
  </g>
  <g id="arrowDown" transform="rotate(180) translate(-30 -48)">
    <use xlink:href="#rim"/>
    <path pointer-events="none" fill="none" stroke="white" stroke-width="1.5" d="M0,-3.0v7 M-2.5,-0.5L0,-3.0L2.5,-0.5"/>
  </g>
  <g id="arrowLeft" transform="rotate(270) translate(-36 17)">
    <use xlink:href="#rim"/>
    <path pointer-events="none" fill="none" stroke="white" stroke-width="1.5" d="M0,-3.0v7 M-2.5,-0.5L0,-3.0L2.5,-0.5"/>
  </g>
  <g id="resetDef">
    <use xlink:href="#rim2" fill="#404040"><set attributeName="fill" to="#808080" begin="reset.mouseover" end="reset.mouseout"/></use>
  </g>
</defs>
<script type="application/ecmascript">
var viewWidth = 1804;
var viewHeight = 776;
var sectionId = 'dynsection-0';
</script>
<script type="application/ecmascript" xlink:href="../../svg.min.js"/>
<svg id="graph" class="graph">
<g id="viewport">
<title>C:/Users/user/Documents/UnrealProjects/FacilityBreach/Plugins/WeaponryAssemblySystem/Source/WeaponryAssemblySystemRuntime/Public/Nodes/ReflectionNodes/WeaponCustomFunctionRuntimeNode.h</title>
<!-- Node1 -->
<g id="Node000001" class="node">
<title>Node1</title>
<g id="a_Node000001"><a xlink:title=" ">
<polygon fill="#999999" stroke="#666666" points="1593.25,-768 1329.75,-768 1329.75,-688 1593.25,-688 1593.25,-768"/>
<text xml:space="preserve" text-anchor="start" x="1337.75" y="-754.5" font-family="Helvetica,sans-Serif" font-size="10.00">C:/Users/user/Documents</text>
<text xml:space="preserve" text-anchor="start" x="1337.75" y="-742.5" font-family="Helvetica,sans-Serif" font-size="10.00">/UnrealProjects/FacilityBreach</text>
<text xml:space="preserve" text-anchor="start" x="1337.75" y="-730.5" font-family="Helvetica,sans-Serif" font-size="10.00">/Plugins/WeaponryAssemblySystem</text>
<text xml:space="preserve" text-anchor="start" x="1337.75" y="-718.5" font-family="Helvetica,sans-Serif" font-size="10.00">/Source/WeaponryAssemblySystemRuntime</text>
<text xml:space="preserve" text-anchor="start" x="1337.75" y="-706.5" font-family="Helvetica,sans-Serif" font-size="10.00">/Public/Nodes/ReflectionNodes/WeaponCustomFunction</text>
<text xml:space="preserve" text-anchor="middle" x="1461.5" y="-694.5" font-family="Helvetica,sans-Serif" font-size="10.00">RuntimeNode.h</text>
</a>
</g>
</g>
<!-- Node2 -->
<g id="Node000002" class="node">
<title>Node2</title>
<g id="a_Node000002"><a xlink:title=" ">
<polygon fill="#e0e0e0" stroke="#999999" points="828,-100 749,-100 749,-80 828,-80 828,-100"/>
<text xml:space="preserve" text-anchor="middle" x="788.5" y="-86.5" font-family="Helvetica,sans-Serif" font-size="10.00">CoreMinimal.h</text>
</a>
</g>
</g>
<!-- Node1&#45;&gt;Node2 -->
<g id="edge1_Node000001_Node000002" class="edge">
<title>Node1&#45;&gt;Node2</title>
<g id="a_edge1_Node000001_Node000002"><a xlink:title=" ">
<path fill="none" stroke="#63b8ff" d="M1461.5,-687.63C1461.5,-656.95 1461.5,-613.26 1461.5,-575 1461.5,-575 1461.5,-575 1461.5,-225 1461.5,-176.92 1428.93,-168.64 1385.5,-148 1289.29,-102.29 965.49,-93.23 839.38,-91.44"/>
<polygon fill="#63b8ff" stroke="#63b8ff" points="839.72,-87.95 829.67,-91.31 839.62,-94.95 839.72,-87.95"/>
</a>
</g>
</g>
<!-- Node3 -->
<g id="Node000003" class="node">
<title>Node3</title>
<g id="a_Node000003"><a xlink:href="../../d9/d51/_weapon_member_node_8h.html" target="_top" xlink:title=" ">
<polygon fill="white" stroke="#666666" points="1403.5,-646 1285.5,-646 1285.5,-626 1403.5,-626 1403.5,-646"/>
<text xml:space="preserve" text-anchor="middle" x="1344.5" y="-632.5" font-family="Helvetica,sans-Serif" font-size="10.00">WeaponMemberNode.h</text>
</a>
</g>
</g>
<!-- Node1&#45;&gt;Node3 -->
<g id="edge2_Node000001_Node000003" class="edge">
<title>Node1&#45;&gt;Node3</title>
<g id="a_edge2_Node000001_Node000003"><a xlink:title=" ">
<path fill="none" stroke="#63b8ff" d="M1410.18,-687.52C1394.48,-675.45 1378.09,-662.84 1365.6,-653.23"/>
<polygon fill="#63b8ff" stroke="#63b8ff" points="1367.78,-650.49 1357.72,-647.17 1363.51,-656.04 1367.78,-650.49"/>
</a>
</g>
</g>
<!-- Node32 -->
<g id="Node000032" class="node">
<title>Node32</title>
<g id="a_Node000032"><a xlink:href="../../de/d35/_weapon_runtime_pin_8h.html" target="_top" xlink:title=" ">
<polygon fill="white" stroke="#666666" points="821.5,-646 679.5,-646 679.5,-626 821.5,-626 821.5,-646"/>
<text xml:space="preserve" text-anchor="middle" x="750.5" y="-632.5" font-family="Helvetica,sans-Serif" font-size="10.00">Nodes/WeaponRuntimePin.h</text>
</a>
</g>
</g>
<!-- Node1&#45;&gt;Node32 -->
<g id="edge45_Node000001_Node000032" class="edge">
<title>Node1&#45;&gt;Node32</title>
<g id="a_edge45_Node000001_Node000032"><a xlink:title=" ">
<path fill="none" stroke="#63b8ff" d="M1329.43,-710.28C1183.98,-691.87 954.6,-662.84 832.83,-647.42"/>
<polygon fill="#63b8ff" stroke="#63b8ff" points="833.6,-643.99 823.24,-646.21 832.73,-650.94 833.6,-643.99"/>
</a>
</g>
</g>
<!-- Node39 -->
<g id="Node000039" class="node">
<title>Node39</title>
<g id="a_Node000039"><a xlink:title=" ">
<polygon fill="#e0e0e0" stroke="#999999" points="1617.38,-646 1489.62,-646 1489.62,-626 1617.38,-626 1617.38,-646"/>
<text xml:space="preserve" text-anchor="middle" x="1553.5" y="-632.5" font-family="Helvetica,sans-Serif" font-size="10.00">StructUtils/PropertyBag.h</text>
</a>
</g>
</g>
<!-- Node1&#45;&gt;Node39 -->
<g id="edge60_Node000001_Node000039" class="edge">
<title>Node1&#45;&gt;Node39</title>
<g id="a_edge60_Node000001_Node000039"><a xlink:title=" ">
<path fill="none" stroke="#63b8ff" d="M1501.85,-687.52C1513.83,-675.81 1526.32,-663.59 1536.02,-654.1"/>
<polygon fill="#63b8ff" stroke="#63b8ff" points="1538.27,-656.8 1542.97,-647.3 1533.37,-651.79 1538.27,-656.8"/>
</a>
</g>
</g>
<!-- Node40 -->
<g id="Node000040" class="node">
<title>Node40</title>
<g id="a_Node000040"><a xlink:title=" ">
<polygon fill="#e0e0e0" stroke="#999999" points="1795.5,-652 1635.5,-652 1635.5,-620 1795.5,-620 1795.5,-652"/>
<text xml:space="preserve" text-anchor="start" x="1643.5" y="-638.5" font-family="Helvetica,sans-Serif" font-size="10.00">WeaponCustomFunctionRuntime</text>
<text xml:space="preserve" text-anchor="middle" x="1715.5" y="-626.5" font-family="Helvetica,sans-Serif" font-size="10.00">Node.generated.h</text>
</a>
</g>
</g>
<!-- Node1&#45;&gt;Node40 -->
<g id="edge61_Node000001_Node000040" class="edge">
<title>Node1&#45;&gt;Node40</title>
<g id="a_edge61_Node000001_Node000040"><a xlink:title=" ">
<path fill="none" stroke="#63b8ff" d="M1572.91,-687.52C1603.58,-676.66 1635.49,-665.35 1661.32,-656.2"/>
<polygon fill="#63b8ff" stroke="#63b8ff" points="1662.32,-659.56 1670.58,-652.92 1659.98,-652.96 1662.32,-659.56"/>
</a>
</g>
</g>
<!-- Node3&#45;&gt;Node2 -->
<g id="edge3_Node000003_Node000002" class="edge">
<title>Node3&#45;&gt;Node2</title>
<g id="a_edge3_Node000003_Node000002"><a xlink:title=" ">
<path fill="none" stroke="#63b8ff" d="M1360.03,-625.58C1373.66,-616.53 1393.04,-601.66 1404.5,-584 1420.88,-558.75 1423.5,-549.1 1423.5,-519 1423.5,-519 1423.5,-519 1423.5,-225 1423.5,-105.86 990.11,-92.12 839.41,-90.94"/>
<polygon fill="#63b8ff" stroke="#63b8ff" points="839.76,-87.44 829.74,-90.88 839.71,-94.44 839.76,-87.44"/>
</a>
</g>
</g>
<!-- Node4 -->
<g id="Node000004" class="node">
<title>Node4</title>
<g id="a_Node000004"><a xlink:href="../../d6/de3/_weapon_runtime_node_8h.html" target="_top" xlink:title=" ">
<polygon fill="white" stroke="#666666" points="1209,-584 1058,-584 1058,-564 1209,-564 1209,-584"/>
<text xml:space="preserve" text-anchor="middle" x="1133.5" y="-570.5" font-family="Helvetica,sans-Serif" font-size="10.00">Nodes/WeaponRuntimeNode.h</text>
</a>
</g>
</g>
<!-- Node3&#45;&gt;Node4 -->
<g id="edge4_Node000003_Node000004" class="edge">
<title>Node3&#45;&gt;Node4</title>
<g id="a_edge4_Node000003_Node000004"><a xlink:title=" ">
<path fill="none" stroke="#63b8ff" d="M1311.53,-625.62C1275.48,-615.37 1217.53,-598.9 1177.59,-587.54"/>
<polygon fill="#63b8ff" stroke="#63b8ff" points="1178.62,-584.19 1168.04,-584.82 1176.7,-590.92 1178.62,-584.19"/>
</a>
</g>
</g>
<!-- Node31 -->
<g id="Node000031" class="node">
<title>Node31</title>
<g id="a_Node000031"><a xlink:title=" ">
<polygon fill="#e0e0e0" stroke="#999999" points="1395.38,-584 1231.62,-584 1231.62,-564 1395.38,-564 1395.38,-584"/>
<text xml:space="preserve" text-anchor="middle" x="1313.5" y="-570.5" font-family="Helvetica,sans-Serif" font-size="10.00">WeaponMemberNode.generated.h</text>
</a>
</g>
</g>
<!-- Node3&#45;&gt;Node31 -->
<g id="edge44_Node000003_Node000031" class="edge">
<title>Node3&#45;&gt;Node31</title>
<g id="a_edge44_Node000003_Node000031"><a xlink:title=" ">
<path fill="none" stroke="#63b8ff" d="M1339.66,-625.62C1335.31,-617.21 1328.79,-604.6 1323.35,-594.07"/>
<polygon fill="#63b8ff" stroke="#63b8ff" points="1326.6,-592.74 1318.9,-585.46 1320.38,-595.95 1326.6,-592.74"/>
</a>
</g>
</g>
<!-- Node5 -->
<g id="Node000005" class="node">
<title>Node5</title>
<g id="a_Node000005"><a xlink:href="../../de/d4c/_misc_8h.html" target="_top" xlink:title="Abort checking and early&#45;return macros for graph execution.">
<polygon fill="white" stroke="#666666" points="1039.12,-528 969.88,-528 969.88,-508 1039.12,-508 1039.12,-528"/>
<text xml:space="preserve" text-anchor="middle" x="1004.5" y="-514.5" font-family="Helvetica,sans-Serif" font-size="10.00">Core/Misc.h</text>
</a>
</g>
</g>
<!-- Node4&#45;&gt;Node5 -->
<g id="edge5_Node000004_Node000005" class="edge">
<title>Node4&#45;&gt;Node5</title>
<g id="a_edge5_Node000004_Node000005"><a xlink:title=" ">
<path fill="none" stroke="#63b8ff" d="M1111.03,-563.59C1090.71,-555.09 1060.55,-542.46 1037.49,-532.81"/>
<polygon fill="#63b8ff" stroke="#63b8ff" points="1039.12,-529.7 1028.54,-529.06 1036.41,-536.15 1039.12,-529.7"/>
</a>
</g>
</g>
<!-- Node6 -->
<g id="Node000006" class="node">
<title>Node6</title>
<g id="a_Node000006"><a xlink:href="../../d0/d9e/_weapon_runtime_graph_8h.html" target="_top" xlink:title=" ">
<polygon fill="white" stroke="#666666" points="1211.5,-528 1057.5,-528 1057.5,-508 1211.5,-508 1211.5,-528"/>
<text xml:space="preserve" text-anchor="middle" x="1134.5" y="-514.5" font-family="Helvetica,sans-Serif" font-size="10.00">Nodes/WeaponRuntimeGraph.h</text>
</a>
</g>
</g>
<!-- Node4&#45;&gt;Node6 -->
<g id="edge6_Node000004_Node000006" class="edge">
<title>Node4&#45;&gt;Node6</title>
<g id="a_edge6_Node000004_Node000006"><a xlink:title=" ">
<path fill="none" stroke="#63b8ff" d="M1133.67,-563.59C1133.8,-557.01 1133.96,-547.96 1134.12,-539.73"/>
<polygon fill="#63b8ff" stroke="#63b8ff" points="1137.61,-539.87 1134.3,-529.81 1130.62,-539.75 1137.61,-539.87"/>
</a>
</g>
</g>
<!-- Node29 -->
<g id="Node000029" class="node">
<title>Node29</title>
<g id="a_Node000029"><a xlink:href="../../d6/d5e/_definitions_8h.html" target="_top" xlink:title=" ">
<polygon fill="white" stroke="#666666" points="951.5,-528 815.5,-528 815.5,-508 951.5,-508 951.5,-528"/>
<text xml:space="preserve" text-anchor="middle" x="883.5" y="-514.5" font-family="Helvetica,sans-Serif" font-size="10.00">Miscellaneous/Definitions.h</text>
</a>
</g>
</g>
<!-- Node4&#45;&gt;Node29 -->
<g id="edge42_Node000004_Node000029" class="edge">
<title>Node4&#45;&gt;Node29</title>
<g id="a_edge42_Node000004_Node000029"><a xlink:title=" ">
<path fill="none" stroke="#63b8ff" d="M1089.67,-563.53C1047.58,-554.44 983.87,-540.68 938.42,-530.86"/>
<polygon fill="#63b8ff" stroke="#63b8ff" points="939.28,-527.47 928.76,-528.78 937.8,-534.31 939.28,-527.47"/>
</a>
</g>
</g>
<!-- Node30 -->
<g id="Node000030" class="node">
<title>Node30</title>
<g id="a_Node000030"><a xlink:title=" ">
<polygon fill="#e0e0e0" stroke="#999999" points="1395.12,-528 1229.88,-528 1229.88,-508 1395.12,-508 1395.12,-528"/>
<text xml:space="preserve" text-anchor="middle" x="1312.5" y="-514.5" font-family="Helvetica,sans-Serif" font-size="10.00">WeaponRuntimeNode.generated.h</text>
</a>
</g>
</g>
<!-- Node4&#45;&gt;Node30 -->
<g id="edge43_Node000004_Node000030" class="edge">
<title>Node4&#45;&gt;Node30</title>
<g id="a_edge43_Node000004_Node000030"><a xlink:title=" ">
<path fill="none" stroke="#63b8ff" d="M1164.68,-563.59C1193.89,-554.78 1237.78,-541.54 1270.15,-531.78"/>
<polygon fill="#63b8ff" stroke="#63b8ff" points="1271.07,-535.16 1279.63,-528.92 1269.04,-528.45 1271.07,-535.16"/>
</a>
</g>
</g>
<!-- Node6&#45;&gt;Node2 -->
<g id="edge7_Node000006_Node000002" class="edge">
<title>Node6&#45;&gt;Node2</title>
<g id="a_edge7_Node000006_Node000002"><a xlink:title=" ">
<path fill="none" stroke="#63b8ff" d="M1143.07,-507.72C1164.28,-483.77 1217.5,-417.05 1217.5,-351 1217.5,-351 1217.5,-351 1217.5,-225 1217.5,-169.96 1170.75,-170.47 1120.5,-148 1027.26,-106.31 906.72,-94.97 839.53,-91.98"/>
<polygon fill="#63b8ff" stroke="#63b8ff" points="840.06,-88.5 829.93,-91.6 839.78,-95.49 840.06,-88.5"/>
</a>
</g>
</g>
<!-- Node7 -->
<g id="Node000007" class="node">
<title>Node7</title>
<g id="a_Node000007"><a xlink:href="../../d4/dfe/_weapon_asset_8h.html" target="_top" xlink:title=" ">
<polygon fill="white" stroke="#666666" points="934,-472 825,-472 825,-452 934,-452 934,-472"/>
<text xml:space="preserve" text-anchor="middle" x="879.5" y="-458.5" font-family="Helvetica,sans-Serif" font-size="10.00">Core/WeaponAsset.h</text>
</a>
</g>
</g>
<!-- Node6&#45;&gt;Node7 -->
<g id="edge8_Node000006_Node000007" class="edge">
<title>Node6&#45;&gt;Node7</title>
<g id="a_edge8_Node000006_Node000007"><a xlink:title=" ">
<path fill="none" stroke="#63b8ff" d="M1089.79,-507.53C1046.77,-498.42 981.6,-484.62 935.22,-474.8"/>
<polygon fill="#63b8ff" stroke="#63b8ff" points="936.15,-471.42 925.64,-472.77 934.7,-478.27 936.15,-471.42"/>
</a>
</g>
</g>
<!-- Node27 -->
<g id="Node000027" class="node">
<title>Node27</title>
<g id="a_Node000027"><a xlink:title=" ">
<polygon fill="#e0e0e0" stroke="#999999" points="807.38,-472 691.62,-472 691.62,-452 807.38,-452 807.38,-472"/>
<text xml:space="preserve" text-anchor="middle" x="749.5" y="-458.5" font-family="Helvetica,sans-Serif" font-size="10.00">UObject/NameTypes.h</text>
</a>
</g>
</g>
<!-- Node6&#45;&gt;Node27 -->
<g id="edge40_Node000006_Node000027" class="edge">
<title>Node6&#45;&gt;Node27</title>
<g id="a_edge40_Node000006_Node000027"><a xlink:title=" ">
<path fill="none" stroke="#63b8ff" d="M1067,-507.53C997.44,-497.78 889.52,-482.64 819.17,-472.77"/>
<polygon fill="#63b8ff" stroke="#63b8ff" points="819.68,-469.31 809.29,-471.39 818.7,-476.24 819.68,-469.31"/>
</a>
</g>
</g>
<!-- Node28 -->
<g id="Node000028" class="node">
<title>Node28</title>
<g id="a_Node000028"><a xlink:title=" ">
<polygon fill="#e0e0e0" stroke="#999999" points="1395.62,-472 1227.38,-472 1227.38,-452 1395.62,-452 1395.62,-472"/>
<text xml:space="preserve" text-anchor="middle" x="1311.5" y="-458.5" font-family="Helvetica,sans-Serif" font-size="10.00">WeaponRuntimeGraph.generated.h</text>
</a>
</g>
</g>
<!-- Node6&#45;&gt;Node28 -->
<g id="edge41_Node000006_Node000028" class="edge">
<title>Node6&#45;&gt;Node28</title>
<g id="a_edge41_Node000006_Node000028"><a xlink:title=" ">
<path fill="none" stroke="#63b8ff" d="M1165.33,-507.59C1194.21,-498.78 1237.61,-485.54 1269.62,-475.78"/>
<polygon fill="#63b8ff" stroke="#63b8ff" points="1270.44,-479.19 1278.98,-472.92 1268.39,-472.49 1270.44,-479.19"/>
</a>
</g>
</g>
<!-- Node7&#45;&gt;Node2 -->
<g id="edge9_Node000007_Node000002" class="edge">
<title>Node7&#45;&gt;Node2</title>
<g id="a_edge9_Node000007_Node000002"><a xlink:title=" ">
<path fill="none" stroke="#63b8ff" d="M934.27,-461.48C986.71,-459.63 1066.38,-450.58 1125.5,-416 1157.92,-397.04 1179.5,-388.56 1179.5,-351 1179.5,-351 1179.5,-351 1179.5,-225 1179.5,-153.93 945.43,-112.62 839.5,-97.56"/>
<polygon fill="#63b8ff" stroke="#63b8ff" points="840.03,-94.1 829.64,-96.19 839.06,-101.04 840.03,-94.1"/>
</a>
</g>
</g>
<!-- Node8 -->
<g id="Node000008" class="node">
<title>Node8</title>
<g id="a_Node000008"><a xlink:href="../../df/da3/_w_a_s_runtime_8h.html" target="_top" xlink:title=" ">
<polygon fill="white" stroke="#666666" points="392.25,-416 308.75,-416 308.75,-396 392.25,-396 392.25,-416"/>
<text xml:space="preserve" text-anchor="middle" x="350.5" y="-402.5" font-family="Helvetica,sans-Serif" font-size="10.00">WASRuntime.h</text>
</a>
</g>
</g>
<!-- Node7&#45;&gt;Node8 -->
<g id="edge10_Node000007_Node000008" class="edge">
<title>Node7&#45;&gt;Node8</title>
<g id="a_edge10_Node000007_Node000008"><a xlink:title=" ">
<path fill="none" stroke="#63b8ff" d="M824.54,-453C821.83,-452.65 819.13,-452.32 816.5,-452 667.39,-434.16 490.79,-418.63 404.04,-411.37"/>
<polygon fill="#63b8ff" stroke="#63b8ff" points="404.42,-407.89 394.17,-410.55 403.84,-414.87 404.42,-407.89"/>
</a>
</g>
</g>
<!-- Node10 -->
<g id="Node000010" class="node">
<title>Node10</title>
<g id="a_Node000010"><a xlink:href="../../d5/dc8/_weapon_execution_context_8h.html" target="_top" xlink:title=" ">
<polygon fill="white" stroke="#666666" points="968.25,-416 830.75,-416 830.75,-396 968.25,-396 968.25,-416"/>
<text xml:space="preserve" text-anchor="middle" x="899.5" y="-402.5" font-family="Helvetica,sans-Serif" font-size="10.00">WeaponExecutionContext.h</text>
</a>
</g>
</g>
<!-- Node7&#45;&gt;Node10 -->
<g id="edge13_Node000007_Node000010" class="edge">
<title>Node7&#45;&gt;Node10</title>
<g id="a_edge13_Node000007_Node000010"><a xlink:title=" ">
<path fill="none" stroke="#63b8ff" d="M882.98,-451.59C885.51,-444.78 889.01,-435.32 892.14,-426.86"/>
<polygon fill="#63b8ff" stroke="#63b8ff" points="895.34,-428.31 895.53,-417.72 888.78,-425.88 895.34,-428.31"/>
</a>
</g>
</g>
<!-- Node11 -->
<g id="Node000011" class="node">
<title>Node11</title>
<g id="a_Node000011"><a xlink:href="../../de/d35/_weapon_asset_characteristics_8h.html" target="_top" xlink:title=" ">
<polygon fill="white" stroke="#666666" points="890,-360 715,-360 715,-340 890,-340 890,-360"/>
<text xml:space="preserve" text-anchor="middle" x="802.5" y="-346.5" font-family="Helvetica,sans-Serif" font-size="10.00">Core/WeaponAssetCharacteristics.h</text>
</a>
</g>
</g>
<!-- Node7&#45;&gt;Node11 -->
<g id="edge35_Node000007_Node000011" class="edge">
<title>Node7&#45;&gt;Node11</title>
<g id="a_edge35_Node000007_Node000011"><a xlink:title=" ">
<path fill="none" stroke="#63b8ff" d="M862.11,-451.57C849.13,-443.68 831.9,-431.28 821.5,-416 812.38,-402.61 807.58,-384.8 805.08,-371.21"/>
<polygon fill="#63b8ff" stroke="#63b8ff" points="808.59,-371.01 803.61,-361.66 801.67,-372.07 808.59,-371.01"/>
</a>
</g>
</g>
<!-- Node14 -->
<g id="Node000014" class="node">
<title>Node14</title>
<g id="a_Node000014"><a xlink:href="../../d9/d6d/_modification_applied_8h.html" target="_top" xlink:title=" ">
<polygon fill="white" stroke="#666666" points="651.5,-304 539.5,-304 539.5,-272 651.5,-272 651.5,-304"/>
<text xml:space="preserve" text-anchor="start" x="547.5" y="-290.5" font-family="Helvetica,sans-Serif" font-size="10.00">WeaponArchitecture</text>
<text xml:space="preserve" text-anchor="middle" x="595.5" y="-278.5" font-family="Helvetica,sans-Serif" font-size="10.00">/ModificationApplied.h</text>
</a>
</g>
</g>
<!-- Node7&#45;&gt;Node14 -->
<g id="edge36_Node000007_Node000014" class="edge">
<title>Node7&#45;&gt;Node14</title>
<g id="a_edge36_Node000007_Node000014"><a xlink:title=" ">
<path fill="none" stroke="#63b8ff" d="M863.15,-451.75C832.3,-434.23 763.47,-394.83 706.5,-360 679.93,-343.75 650.22,-324.71 628.23,-310.43"/>
<polygon fill="#63b8ff" stroke="#63b8ff" points="630.27,-307.58 619.98,-305.06 626.46,-313.45 630.27,-307.58"/>
</a>
</g>
</g>
<!-- Node15 -->
<g id="Node000015" class="node">
<title>Node15</title>
<g id="a_Node000015"><a xlink:href="../../da/d54/_weapon_architecture_8h.html" target="_top" xlink:title=" ">
<polygon fill="white" stroke="#666666" points="613.5,-236 501.5,-236 501.5,-216 613.5,-216 613.5,-236"/>
<text xml:space="preserve" text-anchor="middle" x="557.5" y="-222.5" font-family="Helvetica,sans-Serif" font-size="10.00">WeaponArchitecture.h</text>
</a>
</g>
</g>
<!-- Node7&#45;&gt;Node15 -->
<g id="edge38_Node000007_Node000015" class="edge">
<title>Node7&#45;&gt;Node15</title>
<g id="a_edge38_Node000007_Node000015"><a xlink:title=" ">
<path fill="none" stroke="#63b8ff" d="M847.49,-451.57C768.25,-427.48 566.71,-361.58 530.5,-304 518.88,-285.53 531.02,-261.41 542.53,-245.13"/>
<polygon fill="#63b8ff" stroke="#63b8ff" points="545.2,-247.4 548.48,-237.32 539.64,-243.15 545.2,-247.4"/>
</a>
</g>
</g>
<!-- Node17 -->
<g id="Node000017" class="node">
<title>Node17</title>
<g id="a_Node000017"><a xlink:href="../../d2/d80/_modification_struct_data_8h.html" target="_top" xlink:title=" ">
<polygon fill="white" stroke="#666666" points="257,-180 130,-180 130,-148 257,-148 257,-180"/>
<text xml:space="preserve" text-anchor="start" x="138" y="-166.5" font-family="Helvetica,sans-Serif" font-size="10.00">WeaponArchitecture</text>
<text xml:space="preserve" text-anchor="middle" x="193.5" y="-154.5" font-family="Helvetica,sans-Serif" font-size="10.00">/ModificationStructData.h</text>
</a>
</g>
</g>
<!-- Node7&#45;&gt;Node17 -->
<g id="edge37_Node000007_Node000017" class="edge">
<title>Node7&#45;&gt;Node17</title>
<g id="a_edge37_Node000007_Node000017"><a xlink:title=" ">
<path fill="none" stroke="#63b8ff" d="M824.55,-452.91C821.83,-452.59 819.14,-452.28 816.5,-452 701.98,-439.85 407.99,-454.66 299.5,-416 252.34,-399.2 207.5,-401.06 207.5,-351 207.5,-351 207.5,-351 207.5,-287 207.5,-253.99 202.38,-216.28 198.33,-191.63"/>
<polygon fill="#63b8ff" stroke="#63b8ff" points="201.79,-191.1 196.66,-181.83 194.89,-192.28 201.79,-191.1"/>
</a>
</g>
</g>
<!-- Node26 -->
<g id="Node000026" class="node">
<title>Node26</title>
<g id="a_Node000026"><a xlink:title=" ">
<polygon fill="#e0e0e0" stroke="#999999" points="1116.88,-416 986.12,-416 986.12,-396 1116.88,-396 1116.88,-416"/>
<text xml:space="preserve" text-anchor="middle" x="1051.5" y="-402.5" font-family="Helvetica,sans-Serif" font-size="10.00">WeaponAsset.generated.h</text>
</a>
</g>
</g>
<!-- Node7&#45;&gt;Node26 -->
<g id="edge39_Node000007_Node000026" class="edge">
<title>Node7&#45;&gt;Node26</title>
<g id="a_edge39_Node000007_Node000026"><a xlink:title=" ">
<path fill="none" stroke="#63b8ff" d="M909.46,-451.59C937.41,-442.82 979.33,-429.66 1010.4,-419.9"/>
<polygon fill="#63b8ff" stroke="#63b8ff" points="1011.37,-423.27 1019.86,-416.93 1009.27,-416.59 1011.37,-423.27"/>
</a>
</g>
</g>
<!-- Node8&#45;&gt;Node2 -->
<g id="edge11_Node000008_Node000002" class="edge">
<title>Node8&#45;&gt;Node2</title>
<g id="a_edge11_Node000008_Node000002"><a xlink:title=" ">
<path fill="none" stroke="#63b8ff" d="M357.37,-395.79C363.64,-387 372.79,-373.17 378.5,-360 391.49,-330.03 397.5,-321.67 397.5,-289 397.5,-289 397.5,-289 397.5,-225 397.5,-181.06 421.64,-170.3 459.5,-148 505.74,-120.77 657.18,-103.11 737.47,-95.42"/>
<polygon fill="#63b8ff" stroke="#63b8ff" points="737.64,-98.92 747.27,-94.5 736.99,-91.95 737.64,-98.92"/>
</a>
</g>
</g>
<!-- Node9 -->
<g id="Node000009" class="node">
<title>Node9</title>
<g id="a_Node000009"><a xlink:title=" ">
<polygon fill="#e0e0e0" stroke="#999999" points="369,-360 236,-360 236,-340 369,-340 369,-360"/>
<text xml:space="preserve" text-anchor="middle" x="302.5" y="-346.5" font-family="Helvetica,sans-Serif" font-size="10.00">Modules/ModuleManager.h</text>
</a>
</g>
</g>
<!-- Node8&#45;&gt;Node9 -->
<g id="edge12_Node000008_Node000009" class="edge">
<title>Node8&#45;&gt;Node9</title>
<g id="a_edge12_Node000008_Node000009"><a xlink:title=" ">
<path fill="none" stroke="#63b8ff" d="M342.14,-395.59C335.6,-388.24 326.32,-377.8 318.38,-368.87"/>
<polygon fill="#63b8ff" stroke="#63b8ff" points="321.03,-366.58 311.77,-361.43 315.8,-371.23 321.03,-366.58"/>
</a>
</g>
</g>
<!-- Node10&#45;&gt;Node2 -->
<g id="edge14_Node000010_Node000002" class="edge">
<title>Node10&#45;&gt;Node2</title>
<g id="a_edge14_Node000010_Node000002"><a xlink:title=" ">
<path fill="none" stroke="#63b8ff" d="M905.12,-395.8C914.37,-381.48 934.23,-354.05 958.5,-340 1026.78,-300.46 1162.87,-339.8 1122.5,-272 1060.67,-168.16 916.23,-120.24 839.12,-101.39"/>
<polygon fill="#63b8ff" stroke="#63b8ff" points="840.26,-98.06 829.72,-99.16 838.65,-104.87 840.26,-98.06"/>
</a>
</g>
</g>
<!-- Node10&#45;&gt;Node11 -->
<g id="edge15_Node000010_Node000011" class="edge">
<title>Node10&#45;&gt;Node11</title>
<g id="a_edge15_Node000010_Node000011"><a xlink:title=" ">
<path fill="none" stroke="#63b8ff" d="M882.6,-395.59C867.95,-387.44 846.48,-375.48 829.45,-366"/>
<polygon fill="#63b8ff" stroke="#63b8ff" points="831.29,-363.02 820.85,-361.22 827.89,-369.14 831.29,-363.02"/>
</a>
</g>
</g>
<!-- Node25 -->
<g id="Node000025" class="node">
<title>Node25</title>
<g id="a_Node000025"><a xlink:title=" ">
<polygon fill="#e0e0e0" stroke="#999999" points="1151.12,-360 967.88,-360 967.88,-340 1151.12,-340 1151.12,-360"/>
<text xml:space="preserve" text-anchor="middle" x="1059.5" y="-346.5" font-family="Helvetica,sans-Serif" font-size="10.00">WeaponExecutionContext.generated.h</text>
</a>
</g>
</g>
<!-- Node10&#45;&gt;Node25 -->
<g id="edge34_Node000010_Node000025" class="edge">
<title>Node10&#45;&gt;Node25</title>
<g id="a_edge34_Node000010_Node000025"><a xlink:title=" ">
<path fill="none" stroke="#63b8ff" d="M927.37,-395.59C953.25,-386.86 992.03,-373.77 1020.89,-364.03"/>
<polygon fill="#63b8ff" stroke="#63b8ff" points="1021.62,-367.48 1029.98,-360.96 1019.38,-360.85 1021.62,-367.48"/>
</a>
</g>
</g>
<!-- Node11&#45;&gt;Node2 -->
<g id="edge16_Node000011_Node000002" class="edge">
<title>Node11&#45;&gt;Node2</title>
<g id="a_edge16_Node000011_Node000002"><a xlink:title=" ">
<path fill="none" stroke="#63b8ff" d="M751.47,-339.52C731.44,-333.04 710.44,-322.17 698.5,-304 645.33,-223.06 794.36,-285.74 832.5,-236 862.27,-197.18 825.56,-138.24 803.26,-108.9"/>
<polygon fill="#63b8ff" stroke="#63b8ff" points="806.24,-107.03 797.3,-101.34 800.74,-111.36 806.24,-107.03"/>
</a>
</g>
</g>
<!-- Node12 -->
<g id="Node000012" class="node">
<title>Node12</title>
<g id="a_Node000012"><a xlink:title=" ">
<polygon fill="#e0e0e0" stroke="#999999" points="799.38,-298 707.62,-298 707.62,-278 799.38,-278 799.38,-298"/>
<text xml:space="preserve" text-anchor="middle" x="753.5" y="-284.5" font-family="Helvetica,sans-Serif" font-size="10.00">UObject/Object.h</text>
</a>
</g>
</g>
<!-- Node11&#45;&gt;Node12 -->
<g id="edge17_Node000011_Node000012" class="edge">
<title>Node11&#45;&gt;Node12</title>
<g id="a_edge17_Node000011_Node000012"><a xlink:title=" ">
<path fill="none" stroke="#63b8ff" d="M794.84,-339.62C787.68,-330.86 776.8,-317.53 768,-306.75"/>
<polygon fill="#63b8ff" stroke="#63b8ff" points="770.94,-304.82 761.9,-299.28 765.51,-309.24 770.94,-304.82"/>
</a>
</g>
</g>
<!-- Node13 -->
<g id="Node000013" class="node">
<title>Node13</title>
<g id="a_Node000013"><a xlink:title=" ">
<polygon fill="#e0e0e0" stroke="#999999" points="899.5,-298 817.5,-298 817.5,-278 899.5,-278 899.5,-298"/>
<text xml:space="preserve" text-anchor="middle" x="858.5" y="-284.5" font-family="Helvetica,sans-Serif" font-size="10.00">Engine/World.h</text>
</a>
</g>
</g>
<!-- Node11&#45;&gt;Node13 -->
<g id="edge18_Node000011_Node000013" class="edge">
<title>Node11&#45;&gt;Node13</title>
<g id="a_edge18_Node000011_Node000013"><a xlink:title=" ">
<path fill="none" stroke="#63b8ff" d="M811.25,-339.62C819.52,-330.77 832.12,-317.26 842.24,-306.43"/>
<polygon fill="#63b8ff" stroke="#63b8ff" points="844.7,-308.92 848.96,-299.22 839.58,-304.14 844.7,-308.92"/>
</a>
</g>
</g>
<!-- Node11&#45;&gt;Node14 -->
<g id="edge19_Node000011_Node000014" class="edge">
<title>Node11&#45;&gt;Node14</title>
<g id="a_edge19_Node000011_Node000014"><a xlink:title=" ">
<path fill="none" stroke="#63b8ff" d="M770.16,-339.62C740.66,-331.08 696.22,-318.19 659.55,-307.57"/>
<polygon fill="#63b8ff" stroke="#63b8ff" points="660.97,-304.33 650.4,-304.91 659.03,-311.06 660.97,-304.33"/>
</a>
</g>
</g>
<!-- Node24 -->
<g id="Node000024" class="node">
<title>Node24</title>
<g id="a_Node000024"><a xlink:title=" ">
<polygon fill="#e0e0e0" stroke="#999999" points="1113.88,-298 917.12,-298 917.12,-278 1113.88,-278 1113.88,-298"/>
<text xml:space="preserve" text-anchor="middle" x="1015.5" y="-284.5" font-family="Helvetica,sans-Serif" font-size="10.00">WeaponAssetCharacteristics.generated.h</text>
</a>
</g>
</g>
<!-- Node11&#45;&gt;Node24 -->
<g id="edge33_Node000011_Node000024" class="edge">
<title>Node11&#45;&gt;Node24</title>
<g id="a_edge33_Node000011_Node000024"><a xlink:title=" ">
<path fill="none" stroke="#63b8ff" d="M835.78,-339.62C872.25,-329.35 930.92,-312.82 971.25,-301.47"/>
<polygon fill="#63b8ff" stroke="#63b8ff" points="971.97,-304.9 980.64,-298.82 970.07,-298.16 971.97,-304.9"/>
</a>
</g>
</g>
<!-- Node14&#45;&gt;Node2 -->
<g id="edge20_Node000014_Node000002" class="edge">
<title>Node14&#45;&gt;Node2</title>
<g id="a_edge20_Node000014_Node000002"><a xlink:title=" ">
<path fill="none" stroke="#63b8ff" d="M608.26,-271.64C620.9,-256.78 641.12,-233.94 660.5,-216 679.55,-198.37 687.42,-197.6 706.5,-180 731.48,-156.95 757.64,-127.48 773.51,-108.92"/>
<polygon fill="#63b8ff" stroke="#63b8ff" points="776.04,-111.35 779.83,-101.45 770.7,-106.82 776.04,-111.35"/>
</a>
</g>
</g>
<!-- Node14&#45;&gt;Node15 -->
<g id="edge21_Node000014_Node000015" class="edge">
<title>Node14&#45;&gt;Node15</title>
<g id="a_edge21_Node000014_Node000015"><a xlink:title=" ">
<path fill="none" stroke="#63b8ff" d="M585.71,-271.55C580.77,-263.74 574.72,-254.19 569.49,-245.94"/>
<polygon fill="#63b8ff" stroke="#63b8ff" points="572.58,-244.26 564.27,-237.69 566.66,-248.01 572.58,-244.26"/>
</a>
</g>
</g>
<!-- Node23 -->
<g id="Node000023" class="node">
<title>Node23</title>
<g id="a_Node000023"><a xlink:title=" ">
<polygon fill="#e0e0e0" stroke="#999999" points="823.88,-236 669.12,-236 669.12,-216 823.88,-216 823.88,-236"/>
<text xml:space="preserve" text-anchor="middle" x="746.5" y="-222.5" font-family="Helvetica,sans-Serif" font-size="10.00">ModificationApplied.generated.h</text>
</a>
</g>
</g>
<!-- Node14&#45;&gt;Node23 -->
<g id="edge32_Node000014_Node000023" class="edge">
<title>Node14&#45;&gt;Node23</title>
<g id="a_edge32_Node000014_Node000023"><a xlink:title=" ">
<path fill="none" stroke="#63b8ff" d="M634.39,-271.55C658.53,-261.96 689.25,-249.75 712.43,-240.54"/>
<polygon fill="#63b8ff" stroke="#63b8ff" points="713.42,-243.91 721.42,-236.97 710.83,-237.41 713.42,-243.91"/>
</a>
</g>
</g>
<!-- Node15&#45;&gt;Node2 -->
<g id="edge22_Node000015_Node000002" class="edge">
<title>Node15&#45;&gt;Node2</title>
<g id="a_edge22_Node000015_Node000002"><a xlink:title=" ">
<path fill="none" stroke="#63b8ff" d="M549.27,-215.98C536.2,-200.56 513.82,-168.76 530.5,-148 555.96,-116.3 669.84,-101.17 737.5,-94.87"/>
<polygon fill="#63b8ff" stroke="#63b8ff" points="737.6,-98.37 747.25,-93.99 736.97,-91.4 737.6,-98.37"/>
</a>
</g>
</g>
<!-- Node16 -->
<g id="Node000016" class="node">
<title>Node16</title>
<g id="a_Node000016"><a xlink:title=" ">
<polygon fill="#e0e0e0" stroke="#999999" points="444.38,-26 340.62,-26 340.62,-6 444.38,-6 444.38,-26"/>
<text xml:space="preserve" text-anchor="middle" x="392.5" y="-12.5" font-family="Helvetica,sans-Serif" font-size="10.00">Engine/DataAsset.h</text>
</a>
</g>
</g>
<!-- Node15&#45;&gt;Node16 -->
<g id="edge23_Node000015_Node000016" class="edge">
<title>Node15&#45;&gt;Node16</title>
<g id="a_edge23_Node000015_Node000016"><a xlink:title=" ">
<path fill="none" stroke="#63b8ff" d="M549.79,-215.74C542.26,-206.68 530.51,-192.46 520.5,-180 478.58,-127.84 430.02,-65.44 406.58,-35.21"/>
<polygon fill="#63b8ff" stroke="#63b8ff" points="409.46,-33.21 400.57,-27.44 403.93,-37.49 409.46,-33.21"/>
</a>
</g>
</g>
<!-- Node15&#45;&gt;Node17 -->
<g id="edge24_Node000015_Node000017" class="edge">
<title>Node15&#45;&gt;Node17</title>
<g id="a_edge24_Node000015_Node000017"><a xlink:title=" ">
<path fill="none" stroke="#63b8ff" d="M501.02,-215.69C438.6,-205.4 337.77,-188.78 268.7,-177.4"/>
<polygon fill="#63b8ff" stroke="#63b8ff" points="269.4,-173.96 258.96,-175.79 268.26,-180.87 269.4,-173.96"/>
</a>
</g>
</g>
<!-- Node22 -->
<g id="Node000022" class="node">
<title>Node22</title>
<g id="a_Node000022"><a xlink:title=" ">
<polygon fill="#e0e0e0" stroke="#999999" points="697.38,-174 539.62,-174 539.62,-154 697.38,-154 697.38,-174"/>
<text xml:space="preserve" text-anchor="middle" x="618.5" y="-160.5" font-family="Helvetica,sans-Serif" font-size="10.00">WeaponArchitecture.generated.h</text>
</a>
</g>
</g>
<!-- Node15&#45;&gt;Node22 -->
<g id="edge31_Node000015_Node000022" class="edge">
<title>Node15&#45;&gt;Node22</title>
<g id="a_edge31_Node000015_Node000022"><a xlink:title=" ">
<path fill="none" stroke="#63b8ff" d="M567.03,-215.62C576.13,-206.68 590.04,-192.99 601.11,-182.1"/>
<polygon fill="#63b8ff" stroke="#63b8ff" points="603.48,-184.68 608.16,-175.17 598.57,-179.69 603.48,-184.68"/>
</a>
</g>
</g>
<!-- Node17&#45;&gt;Node2 -->
<g id="edge25_Node000017_Node000002" class="edge">
<title>Node17&#45;&gt;Node2</title>
<g id="a_edge25_Node000017_Node000002"><a xlink:title=" ">
<path fill="none" stroke="#63b8ff" d="M257.28,-150.3C262.08,-149.48 266.86,-148.7 271.5,-148 441.47,-122.33 644.52,-103.32 737.48,-95.26"/>
<polygon fill="#63b8ff" stroke="#63b8ff" points="737.62,-98.76 747.29,-94.41 737.02,-91.78 737.62,-98.76"/>
</a>
</g>
</g>
<!-- Node18 -->
<g id="Node000018" class="node">
<title>Node18</title>
<g id="a_Node000018"><a xlink:href="../../d5/d8d/_modification_description_data_asset_8h.html" target="_top" xlink:title=" ">
<polygon fill="white" stroke="#666666" points="219.75,-112 67.25,-112 67.25,-68 219.75,-68 219.75,-112"/>
<text xml:space="preserve" text-anchor="start" x="75.25" y="-98.5" font-family="Helvetica,sans-Serif" font-size="10.00">Miscellaneous/Description</text>
<text xml:space="preserve" text-anchor="start" x="75.25" y="-86.5" font-family="Helvetica,sans-Serif" font-size="10.00">Structs/ModificationDescription</text>
<text xml:space="preserve" text-anchor="middle" x="143.5" y="-74.5" font-family="Helvetica,sans-Serif" font-size="10.00">DataAsset.h</text>
</a>
</g>
</g>
<!-- Node17&#45;&gt;Node18 -->
<g id="edge26_Node000017_Node000018" class="edge">
<title>Node17&#45;&gt;Node18</title>
<g id="a_edge26_Node000017_Node000018"><a xlink:title=" ">
<path fill="none" stroke="#63b8ff" d="M182.9,-147.73C177.58,-140.07 170.94,-130.51 164.64,-121.44"/>
<polygon fill="#63b8ff" stroke="#63b8ff" points="167.7,-119.72 159.12,-113.5 161.95,-123.71 167.7,-119.72"/>
</a>
</g>
</g>
<!-- Node21 -->
<g id="Node000021" class="node">
<title>Node21</title>
<g id="a_Node000021"><a xlink:title=" ">
<polygon fill="#e0e0e0" stroke="#999999" points="407.38,-100 237.62,-100 237.62,-80 407.38,-80 407.38,-100"/>
<text xml:space="preserve" text-anchor="middle" x="322.5" y="-86.5" font-family="Helvetica,sans-Serif" font-size="10.00">ModificationStructData.generated.h</text>
</a>
</g>
</g>
<!-- Node17&#45;&gt;Node21 -->
<g id="edge30_Node000017_Node000021" class="edge">
<title>Node17&#45;&gt;Node21</title>
<g id="a_edge30_Node000017_Node000021"><a xlink:title=" ">
<path fill="none" stroke="#63b8ff" d="M221.17,-147.55C243.19,-135.27 273.81,-118.18 295.61,-106.01"/>
<polygon fill="#63b8ff" stroke="#63b8ff" points="297.18,-109.14 304.21,-101.21 293.77,-103.03 297.18,-109.14"/>
</a>
</g>
</g>
<!-- Node18&#45;&gt;Node16 -->
<g id="edge27_Node000018_Node000016" class="edge">
<title>Node18&#45;&gt;Node16</title>
<g id="a_edge27_Node000018_Node000016"><a xlink:title=" ">
<path fill="none" stroke="#63b8ff" d="M217.53,-67.59C260.41,-55.2 312.89,-40.02 349.13,-29.54"/>
<polygon fill="#63b8ff" stroke="#63b8ff" points="349.74,-33.01 358.37,-26.87 347.79,-26.28 349.74,-33.01"/>
</a>
</g>
</g>
<!-- Node19 -->
<g id="Node000019" class="node">
<title>Node19</title>
<g id="a_Node000019"><a xlink:title=" ">
<polygon fill="#e0e0e0" stroke="#999999" points="279.75,-26 157.25,-26 157.25,-6 279.75,-6 279.75,-26"/>
<text xml:space="preserve" text-anchor="middle" x="218.5" y="-12.5" font-family="Helvetica,sans-Serif" font-size="10.00">UObject/SoftObjectPtr.h</text>
</a>
</g>
</g>
<!-- Node18&#45;&gt;Node19 -->
<g id="edge28_Node000018_Node000019" class="edge">
<title>Node18&#45;&gt;Node19</title>
<g id="a_edge28_Node000018_Node000019"><a xlink:title=" ">
<path fill="none" stroke="#63b8ff" d="M165.6,-67.79C176.8,-57.03 190.23,-44.14 200.76,-34.03"/>
<polygon fill="#63b8ff" stroke="#63b8ff" points="202.92,-36.81 207.71,-27.36 198.07,-31.76 202.92,-36.81"/>
</a>
</g>
</g>
<!-- Node20 -->
<g id="Node000020" class="node">
<title>Node20</title>
<g id="a_Node000020"><a xlink:title=" ">
<polygon fill="#e0e0e0" stroke="#999999" points="139,-32 0,-32 0,0 139,0 139,-32"/>
<text xml:space="preserve" text-anchor="start" x="8" y="-18.5" font-family="Helvetica,sans-Serif" font-size="10.00">ModificationDescriptionData</text>
<text xml:space="preserve" text-anchor="middle" x="69.5" y="-6.5" font-family="Helvetica,sans-Serif" font-size="10.00">Asset.generated.h</text>
</a>
</g>
</g>
<!-- Node18&#45;&gt;Node20 -->
<g id="edge29_Node000018_Node000020" class="edge">
<title>Node18&#45;&gt;Node20</title>
<g id="a_edge29_Node000018_Node000020"><a xlink:title=" ">
<path fill="none" stroke="#63b8ff" d="M121.7,-67.79C112.69,-59.02 102.23,-48.84 93.04,-39.91"/>
<polygon fill="#63b8ff" stroke="#63b8ff" points="95.74,-37.65 86.13,-33.18 90.86,-42.66 95.74,-37.65"/>
</a>
</g>
</g>
<!-- Node32&#45;&gt;Node2 -->
<g id="edge46_Node000032_Node000002" class="edge">
<title>Node32&#45;&gt;Node2</title>
<g id="a_edge46_Node000032_Node000002"><a xlink:title=" ">
<path fill="none" stroke="#63b8ff" d="M679.06,-635.91C550.69,-636.32 287.22,-631.15 210.5,-584 181.4,-566.11 169.5,-553.16 169.5,-519 169.5,-519 169.5,-519 169.5,-349 169.5,-209.87 282.64,-205.14 409.5,-148 518.77,-98.78 661.89,-90.6 737.14,-90.08"/>
<polygon fill="#63b8ff" stroke="#63b8ff" points="737.11,-93.58 747.11,-90.06 737.1,-86.58 737.11,-93.58"/>
</a>
</g>
</g>
<!-- Node32&#45;&gt;Node4 -->
<g id="edge49_Node000032_Node000004" class="edge">
<title>Node32&#45;&gt;Node4</title>
<g id="a_edge49_Node000032_Node000004"><a xlink:title=" ">
<path fill="none" stroke="#63b8ff" d="M810.77,-625.56C878.75,-614.91 989.26,-597.6 1061.67,-586.25"/>
<polygon fill="#63b8ff" stroke="#63b8ff" points="1062.12,-589.72 1071.46,-584.72 1061.04,-582.81 1062.12,-589.72"/>
</a>
</g>
</g>
<!-- Node32&#45;&gt;Node5 -->
<g id="edge47_Node000032_Node000005" class="edge">
<title>Node32&#45;&gt;Node5</title>
<g id="a_edge47_Node000032_Node000005"><a xlink:title=" ">
<path fill="none" stroke="#63b8ff" d="M821.94,-627.87C882.82,-620.36 964.05,-606.44 987.5,-584 999.36,-572.65 1003.32,-554.13 1004.48,-539.75"/>
<polygon fill="#63b8ff" stroke="#63b8ff" points="1007.97,-540.11 1004.85,-529.99 1000.97,-539.85 1007.97,-540.11"/>
</a>
</g>
</g>
<!-- Node32&#45;&gt;Node8 -->
<g id="edge48_Node000032_Node000008" class="edge">
<title>Node32&#45;&gt;Node8</title>
<g id="a_edge48_Node000032_Node000008"><a xlink:title=" ">
<path fill="none" stroke="#63b8ff" d="M679.21,-633.28C542.96,-629.24 256.35,-616.89 226.5,-584 177.07,-529.52 276.08,-454.68 325.16,-422.61"/>
<polygon fill="#63b8ff" stroke="#63b8ff" points="326.99,-425.59 333.52,-417.25 323.21,-419.7 326.99,-425.59"/>
</a>
</g>
</g>
<!-- Node32&#45;&gt;Node27 -->
<g id="edge58_Node000032_Node000027" class="edge">
<title>Node32&#45;&gt;Node27</title>
<g id="a_edge58_Node000032_Node000027"><a xlink:title=" ">
<path fill="none" stroke="#63b8ff" d="M750.44,-625.51C750.29,-598.54 749.84,-521.04 749.62,-483.65"/>
<polygon fill="#63b8ff" stroke="#63b8ff" points="753.12,-483.75 749.56,-473.77 746.12,-483.79 753.12,-483.75"/>
</a>
</g>
</g>
<!-- Node32&#45;&gt;Node29 -->
<g id="edge50_Node000032_Node000029" class="edge">
<title>Node32&#45;&gt;Node29</title>
<g id="a_edge50_Node000032_Node000029"><a xlink:title=" ">
<path fill="none" stroke="#63b8ff" d="M821.91,-628.08C879.18,-620.87 952.96,-607.3 971.5,-584 989.01,-561.99 956.83,-543.7 926.59,-532.19"/>
<polygon fill="#63b8ff" stroke="#63b8ff" points="928.07,-529 917.48,-528.92 925.71,-535.59 928.07,-529"/>
</a>
</g>
</g>
<!-- Node33 -->
<g id="Node000033" class="node">
<title>Node33</title>
<g id="a_Node000033"><a xlink:href="../../d0/df9/_node_pin_compatibility_8h.html" target="_top" xlink:title=" ">
<polygon fill="white" stroke="#666666" points="962.12,-584 778.88,-584 778.88,-564 962.12,-564 962.12,-584"/>
<text xml:space="preserve" text-anchor="middle" x="870.5" y="-570.5" font-family="Helvetica,sans-Serif" font-size="10.00">Miscellaneous/NodePinCompatibility.h</text>
</a>
</g>
</g>
<!-- Node32&#45;&gt;Node33 -->
<g id="edge51_Node000032_Node000033" class="edge">
<title>Node32&#45;&gt;Node33</title>
<g id="a_edge51_Node000032_Node000033"><a xlink:title=" ">
<path fill="none" stroke="#63b8ff" d="M769.25,-625.62C788.71,-615.89 819.4,-600.55 841.89,-589.31"/>
<polygon fill="#63b8ff" stroke="#63b8ff" points="843.15,-592.59 850.53,-584.99 840.02,-586.33 843.15,-592.59"/>
</a>
</g>
</g>
<!-- Node34 -->
<g id="Node000034" class="node">
<title>Node34</title>
<g id="a_Node000034"><a xlink:href="../../d2/db8/_type_definition_8h.html" target="_top" xlink:title=" ">
<polygon fill="white" stroke="#666666" points="387.38,-584 235.62,-584 235.62,-564 387.38,-564 387.38,-584"/>
<text xml:space="preserve" text-anchor="middle" x="311.5" y="-570.5" font-family="Helvetica,sans-Serif" font-size="10.00">Miscellaneous/TypeDefinition.h</text>
</a>
</g>
</g>
<!-- Node32&#45;&gt;Node34 -->
<g id="edge54_Node000032_Node000034" class="edge">
<title>Node32&#45;&gt;Node34</title>
<g id="a_edge54_Node000032_Node000034"><a xlink:title=" ">
<path fill="none" stroke="#63b8ff" d="M681.42,-625.56C603.01,-614.84 475.26,-597.38 392.3,-586.04"/>
<polygon fill="#63b8ff" stroke="#63b8ff" points="392.78,-582.58 382.4,-584.69 391.83,-589.51 392.78,-582.58"/>
</a>
</g>
</g>
<!-- Node37 -->
<g id="Node000037" class="node">
<title>Node37</title>
<g id="a_Node000037"><a xlink:title=" ">
<polygon fill="#e0e0e0" stroke="#999999" points="547.88,-584 405.12,-584 405.12,-564 547.88,-564 547.88,-584"/>
<text xml:space="preserve" text-anchor="middle" x="476.5" y="-570.5" font-family="Helvetica,sans-Serif" font-size="10.00">StructUtils/InstancedStruct.h</text>
</a>
</g>
</g>
<!-- Node32&#45;&gt;Node37 -->
<g id="edge57_Node000032_Node000037" class="edge">
<title>Node32&#45;&gt;Node37</title>
<g id="a_edge57_Node000032_Node000037"><a xlink:title=" ">
<path fill="none" stroke="#63b8ff" d="M707.39,-625.56C659.65,-615.11 582.61,-598.24 530.79,-586.89"/>
<polygon fill="#63b8ff" stroke="#63b8ff" points="531.81,-583.53 521.29,-584.81 530.31,-590.37 531.81,-583.53"/>
</a>
</g>
</g>
<!-- Node38 -->
<g id="Node000038" class="node">
<title>Node38</title>
<g id="a_Node000038"><a xlink:title=" ">
<polygon fill="#e0e0e0" stroke="#999999" points="722.62,-584 566.38,-584 566.38,-564 722.62,-564 722.62,-584"/>
<text xml:space="preserve" text-anchor="middle" x="644.5" y="-570.5" font-family="Helvetica,sans-Serif" font-size="10.00">WeaponRuntimePin.generated.h</text>
</a>
</g>
</g>
<!-- Node32&#45;&gt;Node38 -->
<g id="edge59_Node000032_Node000038" class="edge">
<title>Node32&#45;&gt;Node38</title>
<g id="a_edge59_Node000032_Node000038"><a xlink:title=" ">
<path fill="none" stroke="#63b8ff" d="M733.94,-625.62C717.06,-616.07 690.62,-601.11 670.86,-589.92"/>
<polygon fill="#63b8ff" stroke="#63b8ff" points="672.69,-586.93 662.26,-585.05 669.24,-593.03 672.69,-586.93"/>
</a>
</g>
</g>
<!-- Node33&#45;&gt;Node2 -->
<g id="edge52_Node000033_Node000002" class="edge">
<title>Node33&#45;&gt;Node2</title>
<g id="a_edge52_Node000033_Node000002"><a xlink:title=" ">
<path fill="none" stroke="#63b8ff" d="M786.31,-563.5C669.77,-545.15 473.5,-493.14 473.5,-351 473.5,-351 473.5,-351 473.5,-225 473.5,-111.82 647.84,-92.87 737.12,-90.6"/>
<polygon fill="#63b8ff" stroke="#63b8ff" points="737.16,-94.1 747.09,-90.41 737.03,-87.1 737.16,-94.1"/>
</a>
</g>
</g>
<!-- Node33&#45;&gt;Node29 -->
<g id="edge53_Node000033_Node000029" class="edge">
<title>Node33&#45;&gt;Node29</title>
<g id="a_edge53_Node000033_Node000029"><a xlink:title=" ">
<path fill="none" stroke="#63b8ff" d="M872.76,-563.59C874.37,-556.93 876.58,-547.75 878.58,-539.44"/>
<polygon fill="#63b8ff" stroke="#63b8ff" points="881.97,-540.31 880.91,-529.77 875.16,-538.67 881.97,-540.31"/>
</a>
</g>
</g>
<!-- Node35 -->
<g id="Node000035" class="node">
<title>Node35</title>
<g id="a_Node000035"><a xlink:title=" ">
<polygon fill="#e0e0e0" stroke="#999999" points="347,-528 250,-528 250,-508 347,-508 347,-528"/>
<text xml:space="preserve" text-anchor="middle" x="298.5" y="-514.5" font-family="Helvetica,sans-Serif" font-size="10.00">Containers/Array.h</text>
</a>
</g>
</g>
<!-- Node34&#45;&gt;Node35 -->
<g id="edge55_Node000034_Node000035" class="edge">
<title>Node34&#45;&gt;Node35</title>
<g id="a_edge55_Node000034_Node000035"><a xlink:title=" ">
<path fill="none" stroke="#63b8ff" d="M309.24,-563.59C307.63,-556.93 305.42,-547.75 303.42,-539.44"/>
<polygon fill="#63b8ff" stroke="#63b8ff" points="306.84,-538.67 301.09,-529.77 300.03,-540.31 306.84,-538.67"/>
</a>
</g>
</g>
<!-- Node36 -->
<g id="Node000036" class="node">
<title>Node36</title>
<g id="a_Node000036"><a xlink:title=" ">
<polygon fill="#e0e0e0" stroke="#999999" points="498,-528 365,-528 365,-508 498,-508 498,-528"/>
<text xml:space="preserve" text-anchor="middle" x="431.5" y="-514.5" font-family="Helvetica,sans-Serif" font-size="10.00">UObject/StrongObjectPtr.h</text>
</a>
</g>
</g>
<!-- Node34&#45;&gt;Node36 -->
<g id="edge56_Node000034_Node000036" class="edge">
<title>Node34&#45;&gt;Node36</title>
<g id="a_edge56_Node000034_Node000036"><a xlink:title=" ">
<path fill="none" stroke="#63b8ff" d="M332.4,-563.59C351.13,-555.17 378.86,-542.69 400.22,-533.07"/>
<polygon fill="#63b8ff" stroke="#63b8ff" points="401.37,-536.4 409.05,-529.1 398.5,-530.01 401.37,-536.4"/>
</a>
</g>
</g>
</g>
</svg>

<g id="navigator" transform="translate(0 0)" fill="#404254">
  <rect fill="#f2f5e9" fill-opacity="0.5" stroke="#606060" stroke-width=".5" x="0" y="0" width="60" height="60"/>
  <use id="zoomplus" xlink:href="#zoomPlus" x="17" y="9" onmousedown="handleZoom(evt,'in')"/>
  <use id="zoomminus" xlink:href="#zoomMin" x="42" y="9" onmousedown="handleZoom(evt,'out')"/>
  <use id="reset" xlink:href="#resetDef" x="30" y="36" onmousedown="handleReset()"/>
   <use id="arrowup" xlink:href="#arrowUp" x="0" y="0" onmousedown="handlePan(0,-1)"/>
  <use id="arrowright" xlink:href="#arrowRight" x="0" y="0" onmousedown="handlePan(1,0)"/>
  <use id="arrowdown" xlink:href="#arrowDown" x="0" y="0" onmousedown="handlePan(0,1)"/>
  <use id="arrowleft" xlink:href="#arrowLeft" x="0" y="0" onmousedown="handlePan(-1,0)"/>
</g>
<svg viewBox="0 0 15 15" width="100%" height="30px" preserveAspectRatio="xMaxYMin meet">
 <g id="arrow_out" transform="scale(0.3 0.3)">
  <a xlink:href="_weapon_custom_function_runtime_node_8h__incl_org.svg" target="_base">
   <rect id="button" ry="5" rx="5" y="6" x="6" height="38" width="38"
        fill="#f2f5e9" fill-opacity="0.5" stroke="#606060" stroke-width="1.0"/>
   <path id="arrow"
     d="M 11.500037,31.436501 C 11.940474,20.09759 22.043105,11.32322 32.158766,21.979434 L 37.068811,17.246167 C 37.068811,17.246167 37.088388,32 37.088388,32 L 22.160133,31.978069 C 22.160133,31.978069 26.997745,27.140456 26.997745,27.140456 C 18.528582,18.264221 13.291696,25.230495 11.500037,31.436501 z"
     style="fill:#404040;"/>
  </a>
 </g>
</svg>

<style type='text/css'>
<![CDATA[
[data-mouse-over-selected='false'] { opacity: 0.7; }
[data-mouse-over-selected='true']  { opacity: 1.0; }
]]>
</style>
<script type="application/ecmascript"><![CDATA[
document.addEventListener('DOMContentLoaded', (event) => {
  highlightEdges();
  highlightAdjacentNodes();
});
]]></script>
</svg>
