<?xml version="1.0" encoding="UTF-8" standalone="no"?>
<!DOCTYPE svg PUBLIC "-//W3C//DTD SVG 1.1//EN"
 "http://www.w3.org/Graphics/SVG/1.1/DTD/svg11.dtd">
<!-- Generated by graphviz version 14.0.2 (20251019.1705)
 -->
<!-- Title: Graphical Class Hierarchy Pages: 1 -->
<svg width="251pt" height="78pt"
 viewBox="0.00 0.00 251.00 78.00" xmlns="http://www.w3.org/2000/svg" xmlns:xlink="http://www.w3.org/1999/xlink">
<g id="graph0" class="graph" transform="scale(1 1) rotate(0) translate(4 74)">
<title>Graphical Class Hierarchy</title>
<!-- Node0 -->
<g id="Node000000" class="node">
<title>Node0</title>
<g id="a_Node000000"><a xlink:title=" ">
<polygon fill="#e0e0e0" stroke="#999999" points="56.5,-42 0,-42 0,-22 56.5,-22 56.5,-42"/>
<text xml:space="preserve" text-anchor="middle" x="28.25" y="-28.5" font-family="Helvetica,sans-Serif" font-size="10.00">UFactory</text>
</a>
</g>
</g>
<!-- Node1 -->
<g id="Node000001" class="node">
<title>Node1</title>
<g id="a_Node000001"><a xlink:href="d1/d51/a00628.html" target="_top" xlink:title=" ">
<polygon fill="white" stroke="#666666" points="242.75,-70 92.5,-70 92.5,-38 242.75,-38 242.75,-70"/>
<text xml:space="preserve" text-anchor="start" x="100.5" y="-56.5" font-family="Helvetica,sans-Serif" font-size="10.00">UWeaponAssetCharacteristics</text>
<text xml:space="preserve" text-anchor="middle" x="167.62" y="-44.5" font-family="Helvetica,sans-Serif" font-size="10.00">Factory</text>
</a>
</g>
</g>
<!-- Node0&#45;&gt;Node1 -->
<g id="edge104_Node000000_Node000001" class="edge">
<title>Node0&#45;&gt;Node1</title>
<g id="a_edge104_Node000000_Node000001"><a xlink:title=" ">
<path fill="none" stroke="#63b8ff" d="M67.83,-38.18C75.51,-39.41 83.81,-40.74 92.23,-42.09"/>
<polygon fill="#63b8ff" stroke="#63b8ff" points="68.64,-34.76 58.21,-36.64 67.53,-41.68 68.64,-34.76"/>
</a>
</g>
</g>
<!-- Node2 -->
<g id="Node000002" class="node">
<title>Node2</title>
<g id="a_Node000002"><a xlink:href="d3/dd6/a00624.html" target="_top" xlink:title=" ">
<polygon fill="white" stroke="#666666" points="226.25,-20 109,-20 109,0 226.25,0 226.25,-20"/>
<text xml:space="preserve" text-anchor="middle" x="167.62" y="-6.5" font-family="Helvetica,sans-Serif" font-size="10.00">UWeaponAssetFactory</text>
</a>
</g>
</g>
<!-- Node0&#45;&gt;Node2 -->
<g id="edge105_Node000000_Node000002" class="edge">
<title>Node0&#45;&gt;Node2</title>
<g id="a_edge105_Node000000_Node000002"><a xlink:title=" ">
<path fill="none" stroke="#63b8ff" d="M67.79,-25.83C80.43,-23.8 94.78,-21.51 108.54,-19.3"/>
<polygon fill="#63b8ff" stroke="#63b8ff" points="67.53,-22.32 58.21,-27.36 68.64,-29.24 67.53,-22.32"/>
</a>
</g>
</g>
</g>
</svg>
