<?xml version="1.0" encoding="UTF-8" standalone="no"?>
<!DOCTYPE svg PUBLIC "-//W3C//DTD SVG 1.1//EN"
 "http://www.w3.org/Graphics/SVG/1.1/DTD/svg11.dtd">
<!-- Generated by graphviz version 14.0.2 (20251019.1705)
 -->
<!-- Title: Graphical Class Hierarchy Pages: 1 -->
<svg width="317pt" height="116pt"
 viewBox="0.00 0.00 317.00 116.00" xmlns="http://www.w3.org/2000/svg" xmlns:xlink="http://www.w3.org/1999/xlink">
<g id="graph0" class="graph" transform="scale(1 1) rotate(0) translate(4 112)">
<title>Graphical Class Hierarchy</title>
<!-- Node0 -->
<g id="Node000000" class="node">
<title>Node0</title>
<g id="a_Node000000"><a xlink:title=" ">
<polygon fill="#e0e0e0" stroke="#999999" points="128.5,-70 0,-70 0,-50 128.5,-50 128.5,-70"/>
<text xml:space="preserve" text-anchor="middle" x="64.25" y="-56.5" font-family="Helvetica,sans-Serif" font-size="10.00">UBlueprintFunctionLibrary</text>
</a>
</g>
</g>
<!-- Node1 -->
<g id="Node000001" class="node">
<title>Node1</title>
<g id="a_Node000001"><a xlink:href="dc/daa/class_u_operators_helper_library.html" target="_top" xlink:title="Blueprint function library for property overrider access and manipulation.">
<polygon fill="white" stroke="#666666" points="298.62,-108 174.62,-108 174.62,-88 298.62,-88 298.62,-108"/>
<text xml:space="preserve" text-anchor="middle" x="236.62" y="-94.5" font-family="Helvetica,sans-Serif" font-size="10.00">UOperatorsHelperLibrary</text>
</a>
</g>
</g>
<!-- Node0&#45;&gt;Node1 -->
<g id="edge97_Node000000_Node000001" class="edge">
<title>Node0&#45;&gt;Node1</title>
<g id="a_edge97_Node000000_Node000001"><a xlink:title=" ">
<path fill="none" stroke="#63b8ff" d="M123.47,-72.98C144.77,-77.74 168.59,-83.05 188.77,-87.55"/>
<polygon fill="#63b8ff" stroke="#63b8ff" points="124.26,-69.57 113.73,-70.81 122.73,-76.41 124.26,-69.57"/>
</a>
</g>
</g>
<!-- Node2 -->
<g id="Node000002" class="node">
<title>Node2</title>
<g id="a_Node000002"><a xlink:href="dc/d5e/class_u_weapon_asset_library.html" target="_top" xlink:title=" ">
<polygon fill="white" stroke="#666666" points="293.38,-70 179.88,-70 179.88,-50 293.38,-50 293.38,-70"/>
<text xml:space="preserve" text-anchor="middle" x="236.62" y="-56.5" font-family="Helvetica,sans-Serif" font-size="10.00">UWeaponAssetLibrary</text>
</a>
</g>
</g>
<!-- Node0&#45;&gt;Node2 -->
<g id="edge98_Node000000_Node000002" class="edge">
<title>Node0&#45;&gt;Node2</title>
<g id="a_edge98_Node000000_Node000002"><a xlink:title=" ">
<path fill="none" stroke="#63b8ff" d="M140.16,-60C153.34,-60 166.86,-60 179.42,-60"/>
<polygon fill="#63b8ff" stroke="#63b8ff" points="140.2,-56.5 130.2,-60 140.2,-63.5 140.2,-56.5"/>
</a>
</g>
</g>
<!-- Node3 -->
<g id="Node000003" class="node">
<title>Node3</title>
<g id="a_Node000003"><a xlink:href="d7/d3a/class_u_weapon_settings_description_function_library.html" target="_top" xlink:title="Blueprint function library for weapon settings and modification descriptions.">
<polygon fill="white" stroke="#666666" points="308.75,-32 164.5,-32 164.5,0 308.75,0 308.75,-32"/>
<text xml:space="preserve" text-anchor="start" x="172.5" y="-18.5" font-family="Helvetica,sans-Serif" font-size="10.00">UWeaponSettingsDescription</text>
<text xml:space="preserve" text-anchor="middle" x="236.62" y="-6.5" font-family="Helvetica,sans-Serif" font-size="10.00">FunctionLibrary</text>
</a>
</g>
</g>
<!-- Node0&#45;&gt;Node3 -->
<g id="edge99_Node000000_Node000003" class="edge">
<title>Node0&#45;&gt;Node3</title>
<g id="a_edge99_Node000000_Node000003"><a xlink:title=" ">
<path fill="none" stroke="#63b8ff" d="M116.69,-46.72C134.07,-42.23 153.68,-37.16 171.89,-32.46"/>
<polygon fill="#63b8ff" stroke="#63b8ff" points="115.9,-43.3 107.09,-49.19 117.65,-50.08 115.9,-43.3"/>
</a>
</g>
</g>
</g>
</svg>
