<?xml version="1.0" encoding="UTF-8" standalone="no"?>
<!DOCTYPE svg PUBLIC "-//W3C//DTD SVG 1.1//EN"
 "http://www.w3.org/Graphics/SVG/1.1/DTD/svg11.dtd">
<!-- Generated by graphviz version 14.0.2 (20251019.1705)
 -->
<!-- Title: UWeaponFloatRuntimeNode Pages: 1 -->
<svg width="151pt" height="196pt"
 viewBox="0.00 0.00 151.00 196.00" xmlns="http://www.w3.org/2000/svg" xmlns:xlink="http://www.w3.org/1999/xlink">
<g id="graph0" class="graph" transform="scale(1 1) rotate(0) translate(4 192)">
<title>UWeaponFloatRuntimeNode</title>
<!-- Node1 -->
<g id="Node000001" class="node">
<title>Node1</title>
<g id="a_Node000001"><a xlink:title="Float literal node.">
<polygon fill="#999999" stroke="#666666" points="141.62,-20 1.12,-20 1.12,0 141.62,0 141.62,-20"/>
<text xml:space="preserve" text-anchor="middle" x="71.38" y="-6.5" font-family="Helvetica,sans-Serif" font-size="10.00">UWeaponFloatRuntimeNode</text>
</a>
</g>
</g>
<!-- Node2 -->
<g id="Node000002" class="node">
<title>Node2</title>
<g id="a_Node000002"><a xlink:href="../../d2/d51/class_u_weapon_value_runtime_node.html" target="_top" xlink:title="Base class for numeric literal value nodes.">
<polygon fill="white" stroke="#666666" points="142.75,-76 0,-76 0,-56 142.75,-56 142.75,-76"/>
<text xml:space="preserve" text-anchor="middle" x="71.38" y="-62.5" font-family="Helvetica,sans-Serif" font-size="10.00">UWeaponValueRuntimeNode</text>
</a>
</g>
</g>
<!-- Node2&#45;&gt;Node1 -->
<g id="edge1_Node000001_Node000002" class="edge">
<title>Node2&#45;&gt;Node1</title>
<g id="a_edge1_Node000001_Node000002"><a xlink:title=" ">
<path fill="none" stroke="#63b8ff" d="M71.38,-44.13C71.38,-35.9 71.38,-26.85 71.38,-20.3"/>
<polygon fill="#63b8ff" stroke="#63b8ff" points="67.88,-44.08 71.38,-54.08 74.88,-44.08 67.88,-44.08"/>
</a>
</g>
</g>
<!-- Node3 -->
<g id="Node000003" class="node">
<title>Node3</title>
<g id="a_Node000003"><a xlink:href="../../de/dde/class_u_weapon_runtime_node.html" target="_top" xlink:title=" ">
<polygon fill="white" stroke="#666666" points="130.75,-132 12,-132 12,-112 130.75,-112 130.75,-132"/>
<text xml:space="preserve" text-anchor="middle" x="71.38" y="-118.5" font-family="Helvetica,sans-Serif" font-size="10.00">UWeaponRuntimeNode</text>
</a>
</g>
</g>
<!-- Node3&#45;&gt;Node2 -->
<g id="edge2_Node000002_Node000003" class="edge">
<title>Node3&#45;&gt;Node2</title>
<g id="a_edge2_Node000002_Node000003"><a xlink:title=" ">
<path fill="none" stroke="#63b8ff" d="M71.38,-100.13C71.38,-91.9 71.38,-82.85 71.38,-76.3"/>
<polygon fill="#63b8ff" stroke="#63b8ff" points="67.88,-100.08 71.38,-110.08 74.88,-100.08 67.88,-100.08"/>
</a>
</g>
</g>
<!-- Node4 -->
<g id="Node000004" class="node">
<title>Node4</title>
<g id="a_Node000004"><a xlink:title=" ">
<polygon fill="white" stroke="#666666" points="97.38,-188 45.38,-188 45.38,-168 97.38,-168 97.38,-188"/>
<text xml:space="preserve" text-anchor="middle" x="71.38" y="-174.5" font-family="Helvetica,sans-Serif" font-size="10.00">UObject</text>
</a>
</g>
</g>
<!-- Node4&#45;&gt;Node3 -->
<g id="edge3_Node000003_Node000004" class="edge">
<title>Node4&#45;&gt;Node3</title>
<g id="a_edge3_Node000003_Node000004"><a xlink:title=" ">
<path fill="none" stroke="#63b8ff" d="M71.38,-156.13C71.38,-147.9 71.38,-138.85 71.38,-132.3"/>
<polygon fill="#63b8ff" stroke="#63b8ff" points="67.88,-156.08 71.38,-166.08 74.88,-156.08 67.88,-156.08"/>
</a>
</g>
</g>
</g>
</svg>
