<?xml version="1.0" encoding="UTF-8" standalone="no"?>
<!DOCTYPE svg PUBLIC "-//W3C//DTD SVG 1.1//EN"
 "http://www.w3.org/Graphics/SVG/1.1/DTD/svg11.dtd">
<!-- Generated by graphviz version 14.0.2 (20251019.1705)
 -->
<!-- Title: C:/Users/user/Documents/UnrealProjects/FacilityBreach/Plugins/WeaponryAssemblySystem/Source/WeaponryAssemblySystemRuntime/Private/Nodes/ComponentsNodes/WeaponSetMaterialNode.cpp Pages: 1 -->
<!--zoomable 764 -->

<svg id="main" version="1.1" xmlns="http://www.w3.org/2000/svg" xmlns:xlink="http://www.w3.org/1999/xlink" xml:space="preserve" onload="init(evt)">
<style type="text/css"><![CDATA[
.node, .edge {opacity: 0.7;}
.node.selected, .edge.selected {opacity: 1;}
.edge:hover path { stroke: red; }
.edge:hover polygon { stroke: red; fill: red; }
]]></style>

<defs>
  <circle id="rim" cx="0" cy="0" r="7"/>
  <circle id="rim2" cx="0" cy="0" r="3.5"/>
  <g id="zoomPlus">
    <use xlink:href="#rim" fill="#404040"><set attributeName="fill" to="#808080" begin="zoomplus.mouseover" end="zoomplus.mouseout"/></use>
    <path d="M-4,0h8M0,-4v8" fill="none" stroke="white" stroke-width="1.5" pointer-events="none"/>
  </g>
  <g id="zoomMin">
    <use xlink:href="#rim" fill="#404040"><set attributeName="fill" to="#808080" begin="zoomminus.mouseover" end="zoomminus.mouseout"/></use>
    <path d="M-4,0h8" fill="none" stroke="white" stroke-width="1.5" pointer-events="none"/>
  </g>
  <g id="arrowUp" transform="translate(30 24)">
    <use xlink:href="#rim"/>
    <path pointer-events="none" fill="none" stroke="white" stroke-width="1.5" d="M0,-3.0v7 M-2.5,-0.5L0,-3.0L2.5,-0.5"/>
  </g>
  <g id="arrowRight" transform="rotate(90) translate(36 -43)">
    <use xlink:href="#rim"/>
    <path pointer-events="none" fill="none" stroke="white" stroke-width="1.5" d="M0,-3.0v7 M-2.5,-0.5L0,-3.0L2.5,-0.5"/>
  </g>
  <g id="arrowDown" transform="rotate(180) translate(-30 -48)">
    <use xlink:href="#rim"/>
    <path pointer-events="none" fill="none" stroke="white" stroke-width="1.5" d="M0,-3.0v7 M-2.5,-0.5L0,-3.0L2.5,-0.5"/>
  </g>
  <g id="arrowLeft" transform="rotate(270) translate(-36 17)">
    <use xlink:href="#rim"/>
    <path pointer-events="none" fill="none" stroke="white" stroke-width="1.5" d="M0,-3.0v7 M-2.5,-0.5L0,-3.0L2.5,-0.5"/>
  </g>
  <g id="resetDef">
    <use xlink:href="#rim2" fill="#404040"><set attributeName="fill" to="#808080" begin="reset.mouseover" end="reset.mouseout"/></use>
  </g>
</defs>
<script type="application/ecmascript">
var viewWidth = 1982;
var viewHeight = 764;
var sectionId = 'dynsection-0';
</script>
<script type="application/ecmascript" xlink:href="../../svg.min.js"/>
<svg id="graph" class="graph">
<g id="viewport">
<title>C:/Users/user/Documents/UnrealProjects/FacilityBreach/Plugins/WeaponryAssemblySystem/Source/WeaponryAssemblySystemRuntime/Private/Nodes/ComponentsNodes/WeaponSetMaterialNode.cpp</title>
<!-- Node1 -->
<g id="Node000001" class="node">
<title>Node1</title>
<g id="a_Node000001"><a xlink:title=" ">
<polygon fill="#999999" stroke="#666666" points="1128.25,-756 830.25,-756 830.25,-688 1128.25,-688 1128.25,-756"/>
<text xml:space="preserve" text-anchor="start" x="838.25" y="-742.5" font-family="Helvetica,sans-Serif" font-size="10.00">C:/Users/user/Documents</text>
<text xml:space="preserve" text-anchor="start" x="838.25" y="-730.5" font-family="Helvetica,sans-Serif" font-size="10.00">/UnrealProjects/FacilityBreach</text>
<text xml:space="preserve" text-anchor="start" x="838.25" y="-718.5" font-family="Helvetica,sans-Serif" font-size="10.00">/Plugins/WeaponryAssemblySystem</text>
<text xml:space="preserve" text-anchor="start" x="838.25" y="-706.5" font-family="Helvetica,sans-Serif" font-size="10.00">/Source/WeaponryAssemblySystemRuntime</text>
<text xml:space="preserve" text-anchor="middle" x="979.25" y="-694.5" font-family="Helvetica,sans-Serif" font-size="10.00">/Private/Nodes/ComponentsNodes/WeaponSetMaterialNode.cpp</text>
</a>
</g>
</g>
<!-- Node2 -->
<g id="Node000002" class="node">
<title>Node2</title>
<g id="a_Node000002"><a xlink:href="../../d0/d59/_weapon_set_material_node_8h.html" target="_top" xlink:title=" ">
<polygon fill="white" stroke="#666666" points="577.88,-652 442.62,-652 442.62,-620 577.88,-620 577.88,-652"/>
<text xml:space="preserve" text-anchor="start" x="450.62" y="-638.5" font-family="Helvetica,sans-Serif" font-size="10.00">Nodes/ComponentsNodes</text>
<text xml:space="preserve" text-anchor="middle" x="510.25" y="-626.5" font-family="Helvetica,sans-Serif" font-size="10.00">/WeaponSetMaterialNode.h</text>
</a>
</g>
</g>
<!-- Node1&#45;&gt;Node2 -->
<g id="edge1_Node000001_Node000002" class="edge">
<title>Node1&#45;&gt;Node2</title>
<g id="a_edge1_Node000001_Node000002"><a xlink:title=" ">
<path fill="none" stroke="#63b8ff" d="M829.89,-694.25C750.04,-679.95 654.95,-662.92 589.36,-651.17"/>
<polygon fill="#63b8ff" stroke="#63b8ff" points="590.23,-647.77 579.77,-649.45 589,-654.66 590.23,-647.77"/>
</a>
</g>
</g>
<!-- Node32 -->
<g id="Node000032" class="node">
<title>Node32</title>
<g id="a_Node000032"><a xlink:title=" ">
<polygon fill="#e0e0e0" stroke="#999999" points="977.88,-646 806.62,-646 806.62,-626 977.88,-626 977.88,-646"/>
<text xml:space="preserve" text-anchor="middle" x="892.25" y="-632.5" font-family="Helvetica,sans-Serif" font-size="10.00">Components/PrimitiveComponent.h</text>
</a>
</g>
</g>
<!-- Node1&#45;&gt;Node32 -->
<g id="edge44_Node000001_Node000032" class="edge">
<title>Node1&#45;&gt;Node32</title>
<g id="a_edge44_Node000001_Node000032"><a xlink:title=" ">
<path fill="none" stroke="#63b8ff" d="M944.62,-687.56C932.86,-676.21 920.2,-663.99 910.28,-654.41"/>
<polygon fill="#63b8ff" stroke="#63b8ff" points="912.75,-651.93 903.12,-647.5 907.89,-656.96 912.75,-651.93"/>
</a>
</g>
</g>
<!-- Node33 -->
<g id="Node000033" class="node">
<title>Node33</title>
<g id="a_Node000033"><a xlink:title=" ">
<polygon fill="#e0e0e0" stroke="#999999" points="1136.12,-646 996.38,-646 996.38,-626 1136.12,-626 1136.12,-646"/>
<text xml:space="preserve" text-anchor="middle" x="1066.25" y="-632.5" font-family="Helvetica,sans-Serif" font-size="10.00">Materials/MaterialInterface.h</text>
</a>
</g>
</g>
<!-- Node1&#45;&gt;Node33 -->
<g id="edge45_Node000001_Node000033" class="edge">
<title>Node1&#45;&gt;Node33</title>
<g id="a_edge45_Node000001_Node000033"><a xlink:title=" ">
<path fill="none" stroke="#63b8ff" d="M1013.88,-687.56C1025.64,-676.21 1038.3,-663.99 1048.22,-654.41"/>
<polygon fill="#63b8ff" stroke="#63b8ff" points="1050.61,-656.96 1055.38,-647.5 1045.75,-651.93 1050.61,-656.96"/>
</a>
</g>
</g>
<!-- Node34 -->
<g id="Node000034" class="node">
<title>Node34</title>
<g id="a_Node000034"><a xlink:href="../../de/d35/_weapon_runtime_pin_8h.html" target="_top" xlink:title=" ">
<polygon fill="white" stroke="#666666" points="1401.25,-646 1259.25,-646 1259.25,-626 1401.25,-626 1401.25,-646"/>
<text xml:space="preserve" text-anchor="middle" x="1330.25" y="-632.5" font-family="Helvetica,sans-Serif" font-size="10.00">Nodes/WeaponRuntimePin.h</text>
</a>
</g>
</g>
<!-- Node1&#45;&gt;Node34 -->
<g id="edge46_Node000001_Node000034" class="edge">
<title>Node1&#45;&gt;Node34</title>
<g id="a_edge46_Node000001_Node000034"><a xlink:title=" ">
<path fill="none" stroke="#63b8ff" d="M1118.98,-687.56C1175.72,-673.98 1237.67,-659.16 1279.72,-649.09"/>
<polygon fill="#63b8ff" stroke="#63b8ff" points="1280.39,-652.53 1289.3,-646.8 1278.76,-645.72 1280.39,-652.53"/>
</a>
</g>
</g>
<!-- Node3 -->
<g id="Node000003" class="node">
<title>Node3</title>
<g id="a_Node000003"><a xlink:title=" ">
<polygon fill="#e0e0e0" stroke="#999999" points="1166.75,-100 1087.75,-100 1087.75,-80 1166.75,-80 1166.75,-100"/>
<text xml:space="preserve" text-anchor="middle" x="1127.25" y="-86.5" font-family="Helvetica,sans-Serif" font-size="10.00">CoreMinimal.h</text>
</a>
</g>
</g>
<!-- Node2&#45;&gt;Node3 -->
<g id="edge2_Node000002_Node000003" class="edge">
<title>Node2&#45;&gt;Node3</title>
<g id="a_edge2_Node000002_Node000003"><a xlink:title=" ">
<path fill="none" stroke="#63b8ff" d="M475.25,-619.65C439.52,-601.33 389.25,-567.02 389.25,-519 389.25,-519 389.25,-519 389.25,-225 389.25,-182.42 409.06,-168.73 446.25,-148 500.86,-117.56 927.25,-98.6 1076.15,-92.86"/>
<polygon fill="#63b8ff" stroke="#63b8ff" points="1076.25,-96.36 1086.11,-92.48 1075.98,-89.36 1076.25,-96.36"/>
</a>
</g>
</g>
<!-- Node4 -->
<g id="Node000004" class="node">
<title>Node4</title>
<g id="a_Node000004"><a xlink:href="../../d6/de3/_weapon_runtime_node_8h.html" target="_top" xlink:title=" ">
<polygon fill="white" stroke="#666666" points="1013.75,-584 862.75,-584 862.75,-564 1013.75,-564 1013.75,-584"/>
<text xml:space="preserve" text-anchor="middle" x="938.25" y="-570.5" font-family="Helvetica,sans-Serif" font-size="10.00">Nodes/WeaponRuntimeNode.h</text>
</a>
</g>
</g>
<!-- Node2&#45;&gt;Node4 -->
<g id="edge3_Node000002_Node000004" class="edge">
<title>Node2&#45;&gt;Node4</title>
<g id="a_edge3_Node000002_Node000004"><a xlink:title=" ">
<path fill="none" stroke="#63b8ff" d="M578.07,-625.49C654.61,-614.76 778.94,-597.33 859.66,-586.02"/>
<polygon fill="#63b8ff" stroke="#63b8ff" points="859.83,-589.53 869.25,-584.67 858.86,-582.6 859.83,-589.53"/>
</a>
</g>
</g>
<!-- Node31 -->
<g id="Node000031" class="node">
<title>Node31</title>
<g id="a_Node000031"><a xlink:title=" ">
<polygon fill="#e0e0e0" stroke="#999999" points="361.25,-584 183.25,-584 183.25,-564 361.25,-564 361.25,-584"/>
<text xml:space="preserve" text-anchor="middle" x="272.25" y="-570.5" font-family="Helvetica,sans-Serif" font-size="10.00">WeaponSetMaterialNode.generated.h</text>
</a>
</g>
</g>
<!-- Node2&#45;&gt;Node31 -->
<g id="edge43_Node000002_Node000031" class="edge">
<title>Node2&#45;&gt;Node31</title>
<g id="a_edge43_Node000002_Node000031"><a xlink:title=" ">
<path fill="none" stroke="#63b8ff" d="M448.96,-619.55C409.14,-609.51 357.95,-596.61 320.93,-587.27"/>
<polygon fill="#63b8ff" stroke="#63b8ff" points="321.94,-583.92 311.39,-584.87 320.23,-590.7 321.94,-583.92"/>
</a>
</g>
</g>
<!-- Node5 -->
<g id="Node000005" class="node">
<title>Node5</title>
<g id="a_Node000005"><a xlink:href="../../de/d4c/_misc_8h.html" target="_top" xlink:title="Abort checking and early&#45;return macros for graph execution.">
<polygon fill="white" stroke="#666666" points="1089.88,-528 1020.62,-528 1020.62,-508 1089.88,-508 1089.88,-528"/>
<text xml:space="preserve" text-anchor="middle" x="1055.25" y="-514.5" font-family="Helvetica,sans-Serif" font-size="10.00">Core/Misc.h</text>
</a>
</g>
</g>
<!-- Node4&#45;&gt;Node5 -->
<g id="edge4_Node000004_Node000005" class="edge">
<title>Node4&#45;&gt;Node5</title>
<g id="a_edge4_Node000004_Node000005"><a xlink:title=" ">
<path fill="none" stroke="#63b8ff" d="M958.63,-563.59C976.81,-555.21 1003.68,-542.8 1024.47,-533.21"/>
<polygon fill="#63b8ff" stroke="#63b8ff" points="1025.72,-536.48 1033.34,-529.11 1022.79,-530.13 1025.72,-536.48"/>
</a>
</g>
</g>
<!-- Node6 -->
<g id="Node000006" class="node">
<title>Node6</title>
<g id="a_Node000006"><a xlink:href="../../d0/d9e/_weapon_runtime_graph_8h.html" target="_top" xlink:title=" ">
<polygon fill="white" stroke="#666666" points="1002.25,-528 848.25,-528 848.25,-508 1002.25,-508 1002.25,-528"/>
<text xml:space="preserve" text-anchor="middle" x="925.25" y="-514.5" font-family="Helvetica,sans-Serif" font-size="10.00">Nodes/WeaponRuntimeGraph.h</text>
</a>
</g>
</g>
<!-- Node4&#45;&gt;Node6 -->
<g id="edge5_Node000004_Node000006" class="edge">
<title>Node4&#45;&gt;Node6</title>
<g id="a_edge5_Node000004_Node000006"><a xlink:title=" ">
<path fill="none" stroke="#63b8ff" d="M935.99,-563.59C934.38,-556.93 932.17,-547.75 930.17,-539.44"/>
<polygon fill="#63b8ff" stroke="#63b8ff" points="933.59,-538.67 927.84,-529.77 926.78,-540.31 933.59,-538.67"/>
</a>
</g>
</g>
<!-- Node29 -->
<g id="Node000029" class="node">
<title>Node29</title>
<g id="a_Node000029"><a xlink:href="../../d6/d5e/_definitions_8h.html" target="_top" xlink:title=" ">
<polygon fill="white" stroke="#666666" points="1727.25,-528 1591.25,-528 1591.25,-508 1727.25,-508 1727.25,-528"/>
<text xml:space="preserve" text-anchor="middle" x="1659.25" y="-514.5" font-family="Helvetica,sans-Serif" font-size="10.00">Miscellaneous/Definitions.h</text>
</a>
</g>
</g>
<!-- Node4&#45;&gt;Node29 -->
<g id="edge41_Node000004_Node000029" class="edge">
<title>Node4&#45;&gt;Node29</title>
<g id="a_edge41_Node000004_Node000029"><a xlink:title=" ">
<path fill="none" stroke="#63b8ff" d="M1013.84,-567.48C1128.51,-559.09 1353.33,-542.56 1544.25,-528 1555.67,-527.13 1567.74,-526.2 1579.58,-525.28"/>
<polygon fill="#63b8ff" stroke="#63b8ff" points="1579.64,-528.78 1589.33,-524.52 1579.09,-521.8 1579.64,-528.78"/>
</a>
</g>
</g>
<!-- Node30 -->
<g id="Node000030" class="node">
<title>Node30</title>
<g id="a_Node000030"><a xlink:title=" ">
<polygon fill="#e0e0e0" stroke="#999999" points="829.88,-528 664.62,-528 664.62,-508 829.88,-508 829.88,-528"/>
<text xml:space="preserve" text-anchor="middle" x="747.25" y="-514.5" font-family="Helvetica,sans-Serif" font-size="10.00">WeaponRuntimeNode.generated.h</text>
</a>
</g>
</g>
<!-- Node4&#45;&gt;Node30 -->
<g id="edge42_Node000004_Node000030" class="edge">
<title>Node4&#45;&gt;Node30</title>
<g id="a_edge42_Node000004_Node000030"><a xlink:title=" ">
<path fill="none" stroke="#63b8ff" d="M904.98,-563.59C873.54,-554.71 826.16,-541.31 791.54,-531.52"/>
<polygon fill="#63b8ff" stroke="#63b8ff" points="792.81,-528.24 782.24,-528.89 790.91,-534.98 792.81,-528.24"/>
</a>
</g>
</g>
<!-- Node6&#45;&gt;Node3 -->
<g id="edge6_Node000006_Node000003" class="edge">
<title>Node6&#45;&gt;Node3</title>
<g id="a_edge6_Node000006_Node000003"><a xlink:title=" ">
<path fill="none" stroke="#63b8ff" d="M920.86,-507.93C914.96,-494.26 906.58,-468.28 919.25,-452 959.23,-400.62 999.84,-437.64 1061.25,-416 1126.71,-392.93 1203.25,-420.41 1203.25,-351 1203.25,-351 1203.25,-351 1203.25,-225 1203.25,-178.04 1167.5,-132.47 1145.04,-108.46"/>
<polygon fill="#63b8ff" stroke="#63b8ff" points="1147.71,-106.19 1138.24,-101.45 1142.69,-111.07 1147.71,-106.19"/>
</a>
</g>
</g>
<!-- Node7 -->
<g id="Node000007" class="node">
<title>Node7</title>
<g id="a_Node000007"><a xlink:href="../../d4/dfe/_weapon_asset_8h.html" target="_top" xlink:title=" ">
<polygon fill="white" stroke="#666666" points="856.75,-472 747.75,-472 747.75,-452 856.75,-452 856.75,-472"/>
<text xml:space="preserve" text-anchor="middle" x="802.25" y="-458.5" font-family="Helvetica,sans-Serif" font-size="10.00">Core/WeaponAsset.h</text>
</a>
</g>
</g>
<!-- Node6&#45;&gt;Node7 -->
<g id="edge7_Node000006_Node000007" class="edge">
<title>Node6&#45;&gt;Node7</title>
<g id="a_edge7_Node000006_Node000007"><a xlink:title=" ">
<path fill="none" stroke="#63b8ff" d="M903.83,-507.59C884.63,-499.17 856.21,-486.69 834.31,-477.07"/>
<polygon fill="#63b8ff" stroke="#63b8ff" points="835.79,-473.9 825.23,-473.09 832.98,-480.31 835.79,-473.9"/>
</a>
</g>
</g>
<!-- Node27 -->
<g id="Node000027" class="node">
<title>Node27</title>
<g id="a_Node000027"><a xlink:title=" ">
<polygon fill="#e0e0e0" stroke="#999999" points="1230.12,-472 1114.38,-472 1114.38,-452 1230.12,-452 1230.12,-472"/>
<text xml:space="preserve" text-anchor="middle" x="1172.25" y="-458.5" font-family="Helvetica,sans-Serif" font-size="10.00">UObject/NameTypes.h</text>
</a>
</g>
</g>
<!-- Node6&#45;&gt;Node27 -->
<g id="edge39_Node000006_Node000027" class="edge">
<title>Node6&#45;&gt;Node27</title>
<g id="a_edge39_Node000006_Node000027"><a xlink:title=" ">
<path fill="none" stroke="#63b8ff" d="M968.56,-507.53C1010.14,-498.44 1073.08,-484.68 1117.99,-474.86"/>
<polygon fill="#63b8ff" stroke="#63b8ff" points="1118.49,-478.34 1127.51,-472.78 1117,-471.5 1118.49,-478.34"/>
</a>
</g>
</g>
<!-- Node28 -->
<g id="Node000028" class="node">
<title>Node28</title>
<g id="a_Node000028"><a xlink:title=" ">
<polygon fill="#e0e0e0" stroke="#999999" points="1096.38,-472 928.12,-472 928.12,-452 1096.38,-452 1096.38,-472"/>
<text xml:space="preserve" text-anchor="middle" x="1012.25" y="-458.5" font-family="Helvetica,sans-Serif" font-size="10.00">WeaponRuntimeGraph.generated.h</text>
</a>
</g>
</g>
<!-- Node6&#45;&gt;Node28 -->
<g id="edge40_Node000006_Node000028" class="edge">
<title>Node6&#45;&gt;Node28</title>
<g id="a_edge40_Node000006_Node000028"><a xlink:title=" ">
<path fill="none" stroke="#63b8ff" d="M940.4,-507.59C953.3,-499.59 972.08,-487.93 987.21,-478.54"/>
<polygon fill="#63b8ff" stroke="#63b8ff" points="989.04,-481.53 995.69,-473.28 985.35,-475.58 989.04,-481.53"/>
</a>
</g>
</g>
<!-- Node7&#45;&gt;Node3 -->
<g id="edge8_Node000007_Node000003" class="edge">
<title>Node7&#45;&gt;Node3</title>
<g id="a_edge8_Node000007_Node000003"><a xlink:title=" ">
<path fill="none" stroke="#63b8ff" d="M850.08,-451.56C948.65,-431.45 1165.25,-383.55 1165.25,-351 1165.25,-351 1165.25,-351 1165.25,-225 1165.25,-190.22 1161.17,-181.34 1151.25,-148 1147.47,-135.3 1141.76,-121.61 1136.86,-110.82"/>
<polygon fill="#63b8ff" stroke="#63b8ff" points="1140.05,-109.38 1132.63,-101.82 1133.71,-112.36 1140.05,-109.38"/>
</a>
</g>
</g>
<!-- Node8 -->
<g id="Node000008" class="node">
<title>Node8</title>
<g id="a_Node000008"><a xlink:href="../../df/da3/_w_a_s_runtime_8h.html" target="_top" xlink:title=" ">
<polygon fill="white" stroke="#666666" points="1315,-416 1231.5,-416 1231.5,-396 1315,-396 1315,-416"/>
<text xml:space="preserve" text-anchor="middle" x="1273.25" y="-402.5" font-family="Helvetica,sans-Serif" font-size="10.00">WASRuntime.h</text>
</a>
</g>
</g>
<!-- Node7&#45;&gt;Node8 -->
<g id="edge9_Node000007_Node000008" class="edge">
<title>Node7&#45;&gt;Node8</title>
<g id="a_edge9_Node000007_Node000008"><a xlink:title=" ">
<path fill="none" stroke="#63b8ff" d="M857.2,-454.7C948.33,-444.25 1129.61,-423.47 1219.76,-413.13"/>
<polygon fill="#63b8ff" stroke="#63b8ff" points="1220.04,-416.62 1229.57,-412.01 1219.24,-409.67 1220.04,-416.62"/>
</a>
</g>
</g>
<!-- Node10 -->
<g id="Node000010" class="node">
<title>Node10</title>
<g id="a_Node000010"><a xlink:href="../../d5/dc8/_weapon_execution_context_8h.html" target="_top" xlink:title=" ">
<polygon fill="white" stroke="#666666" points="984,-416 846.5,-416 846.5,-396 984,-396 984,-416"/>
<text xml:space="preserve" text-anchor="middle" x="915.25" y="-402.5" font-family="Helvetica,sans-Serif" font-size="10.00">WeaponExecutionContext.h</text>
</a>
</g>
</g>
<!-- Node7&#45;&gt;Node10 -->
<g id="edge12_Node000007_Node000010" class="edge">
<title>Node7&#45;&gt;Node10</title>
<g id="a_edge12_Node000007_Node000010"><a xlink:title=" ">
<path fill="none" stroke="#63b8ff" d="M821.93,-451.59C839.41,-443.24 865.2,-430.92 885.25,-421.34"/>
<polygon fill="#63b8ff" stroke="#63b8ff" points="886.53,-424.6 894.05,-417.13 883.52,-418.29 886.53,-424.6"/>
</a>
</g>
</g>
<!-- Node11 -->
<g id="Node000011" class="node">
<title>Node11</title>
<g id="a_Node000011"><a xlink:href="../../de/d35/_weapon_asset_characteristics_8h.html" target="_top" xlink:title=" ">
<polygon fill="white" stroke="#666666" points="889.75,-360 714.75,-360 714.75,-340 889.75,-340 889.75,-360"/>
<text xml:space="preserve" text-anchor="middle" x="802.25" y="-346.5" font-family="Helvetica,sans-Serif" font-size="10.00">Core/WeaponAssetCharacteristics.h</text>
</a>
</g>
</g>
<!-- Node7&#45;&gt;Node11 -->
<g id="edge34_Node000007_Node000011" class="edge">
<title>Node7&#45;&gt;Node11</title>
<g id="a_edge34_Node000007_Node000011"><a xlink:title=" ">
<path fill="none" stroke="#63b8ff" d="M802.25,-451.62C802.25,-434.01 802.25,-395.59 802.25,-371.65"/>
<polygon fill="#63b8ff" stroke="#63b8ff" points="805.75,-371.87 802.25,-361.87 798.75,-371.87 805.75,-371.87"/>
</a>
</g>
</g>
<!-- Node14 -->
<g id="Node000014" class="node">
<title>Node14</title>
<g id="a_Node000014"><a xlink:href="../../d9/d6d/_modification_applied_8h.html" target="_top" xlink:title=" ">
<polygon fill="white" stroke="#666666" points="637.25,-304 525.25,-304 525.25,-272 637.25,-272 637.25,-304"/>
<text xml:space="preserve" text-anchor="start" x="533.25" y="-290.5" font-family="Helvetica,sans-Serif" font-size="10.00">WeaponArchitecture</text>
<text xml:space="preserve" text-anchor="middle" x="581.25" y="-278.5" font-family="Helvetica,sans-Serif" font-size="10.00">/ModificationApplied.h</text>
</a>
</g>
</g>
<!-- Node7&#45;&gt;Node14 -->
<g id="edge35_Node000007_Node000014" class="edge">
<title>Node7&#45;&gt;Node14</title>
<g id="a_edge35_Node000007_Node000014"><a xlink:title=" ">
<path fill="none" stroke="#63b8ff" d="M790.05,-451.51C755.88,-424.91 658.51,-349.13 609.77,-311.2"/>
<polygon fill="#63b8ff" stroke="#63b8ff" points="612.22,-308.67 602.18,-305.29 607.92,-314.19 612.22,-308.67"/>
</a>
</g>
</g>
<!-- Node15 -->
<g id="Node000015" class="node">
<title>Node15</title>
<g id="a_Node000015"><a xlink:href="../../da/d54/_weapon_architecture_8h.html" target="_top" xlink:title=" ">
<polygon fill="white" stroke="#666666" points="567.25,-236 455.25,-236 455.25,-216 567.25,-216 567.25,-236"/>
<text xml:space="preserve" text-anchor="middle" x="511.25" y="-222.5" font-family="Helvetica,sans-Serif" font-size="10.00">WeaponArchitecture.h</text>
</a>
</g>
</g>
<!-- Node7&#45;&gt;Node15 -->
<g id="edge37_Node000007_Node000015" class="edge">
<title>Node7&#45;&gt;Node15</title>
<g id="a_edge37_Node000007_Node000015"><a xlink:title=" ">
<path fill="none" stroke="#63b8ff" d="M759.77,-451.51C694.6,-434.46 571.69,-391.92 516.25,-304 505.66,-287.2 505.66,-264.05 507.53,-247.52"/>
<polygon fill="#63b8ff" stroke="#63b8ff" points="510.95,-248.3 508.96,-237.89 504.03,-247.27 510.95,-248.3"/>
</a>
</g>
</g>
<!-- Node17 -->
<g id="Node000017" class="node">
<title>Node17</title>
<g id="a_Node000017"><a xlink:href="../../d2/d80/_modification_struct_data_8h.html" target="_top" xlink:title=" ">
<polygon fill="white" stroke="#666666" points="360.75,-180 233.75,-180 233.75,-148 360.75,-148 360.75,-180"/>
<text xml:space="preserve" text-anchor="start" x="241.75" y="-166.5" font-family="Helvetica,sans-Serif" font-size="10.00">WeaponArchitecture</text>
<text xml:space="preserve" text-anchor="middle" x="297.25" y="-154.5" font-family="Helvetica,sans-Serif" font-size="10.00">/ModificationStructData.h</text>
</a>
</g>
</g>
<!-- Node7&#45;&gt;Node17 -->
<g id="edge36_Node000007_Node000017" class="edge">
<title>Node7&#45;&gt;Node17</title>
<g id="a_edge36_Node000007_Node000017"><a xlink:title=" ">
<path fill="none" stroke="#63b8ff" d="M747.55,-461.19C659.19,-460.35 490.45,-453.69 446.25,-416 423.35,-396.47 427.25,-381.1 427.25,-351 427.25,-351 427.25,-351 427.25,-287 427.25,-239.89 381.3,-205.68 344.04,-185.68"/>
<polygon fill="#63b8ff" stroke="#63b8ff" points="345.65,-182.57 335.15,-181.1 342.45,-188.79 345.65,-182.57"/>
</a>
</g>
</g>
<!-- Node26 -->
<g id="Node000026" class="node">
<title>Node26</title>
<g id="a_Node000026"><a xlink:title=" ">
<polygon fill="#e0e0e0" stroke="#999999" points="585.62,-416 454.88,-416 454.88,-396 585.62,-396 585.62,-416"/>
<text xml:space="preserve" text-anchor="middle" x="520.25" y="-402.5" font-family="Helvetica,sans-Serif" font-size="10.00">WeaponAsset.generated.h</text>
</a>
</g>
</g>
<!-- Node7&#45;&gt;Node26 -->
<g id="edge38_Node000007_Node000026" class="edge">
<title>Node7&#45;&gt;Node26</title>
<g id="a_edge38_Node000007_Node000026"><a xlink:title=" ">
<path fill="none" stroke="#63b8ff" d="M752.81,-451.53C704.93,-442.36 632.25,-428.45 580.9,-418.61"/>
<polygon fill="#63b8ff" stroke="#63b8ff" points="581.6,-415.18 571.12,-416.74 580.29,-422.06 581.6,-415.18"/>
</a>
</g>
</g>
<!-- Node8&#45;&gt;Node3 -->
<g id="edge10_Node000008_Node000003" class="edge">
<title>Node8&#45;&gt;Node3</title>
<g id="a_edge10_Node000008_Node000003"><a xlink:title=" ">
<path fill="none" stroke="#63b8ff" d="M1268.8,-395.62C1260.01,-376.19 1241.25,-329.95 1241.25,-289 1241.25,-289 1241.25,-289 1241.25,-225 1241.25,-189.15 1239.06,-176.45 1217.25,-148 1202.79,-129.14 1180.17,-114.85 1161.23,-105.3"/>
<polygon fill="#63b8ff" stroke="#63b8ff" points="1162.77,-102.16 1152.24,-101 1159.75,-108.47 1162.77,-102.16"/>
</a>
</g>
</g>
<!-- Node9 -->
<g id="Node000009" class="node">
<title>Node9</title>
<g id="a_Node000009"><a xlink:title=" ">
<polygon fill="#e0e0e0" stroke="#999999" points="1402.75,-360 1269.75,-360 1269.75,-340 1402.75,-340 1402.75,-360"/>
<text xml:space="preserve" text-anchor="middle" x="1336.25" y="-346.5" font-family="Helvetica,sans-Serif" font-size="10.00">Modules/ModuleManager.h</text>
</a>
</g>
</g>
<!-- Node8&#45;&gt;Node9 -->
<g id="edge11_Node000008_Node000009" class="edge">
<title>Node8&#45;&gt;Node9</title>
<g id="a_edge11_Node000008_Node000009"><a xlink:title=" ">
<path fill="none" stroke="#63b8ff" d="M1284.22,-395.59C1293.17,-387.93 1306.02,-376.91 1316.71,-367.75"/>
<polygon fill="#63b8ff" stroke="#63b8ff" points="1318.94,-370.45 1324.25,-361.28 1314.38,-365.13 1318.94,-370.45"/>
</a>
</g>
</g>
<!-- Node10&#45;&gt;Node3 -->
<g id="edge13_Node000010_Node000003" class="edge">
<title>Node10&#45;&gt;Node3</title>
<g id="a_edge13_Node000010_Node000003"><a xlink:title=" ">
<path fill="none" stroke="#63b8ff" d="M916.66,-395.88C919.35,-381.66 926.62,-354.36 944.25,-340 1002.11,-292.87 1058.94,-360.01 1108.25,-304 1156.49,-249.2 1141.83,-152.9 1132.44,-111.2"/>
<polygon fill="#63b8ff" stroke="#63b8ff" points="1135.87,-110.49 1130.12,-101.59 1129.06,-112.13 1135.87,-110.49"/>
</a>
</g>
</g>
<!-- Node10&#45;&gt;Node11 -->
<g id="edge14_Node000010_Node000011" class="edge">
<title>Node10&#45;&gt;Node11</title>
<g id="a_edge14_Node000010_Node000011"><a xlink:title=" ">
<path fill="none" stroke="#63b8ff" d="M895.57,-395.59C878.09,-387.24 852.3,-374.92 832.25,-365.34"/>
<polygon fill="#63b8ff" stroke="#63b8ff" points="833.98,-362.29 823.45,-361.13 830.97,-368.6 833.98,-362.29"/>
</a>
</g>
</g>
<!-- Node25 -->
<g id="Node000025" class="node">
<title>Node25</title>
<g id="a_Node000025"><a xlink:title=" ">
<polygon fill="#e0e0e0" stroke="#999999" points="1136.88,-360 953.62,-360 953.62,-340 1136.88,-340 1136.88,-360"/>
<text xml:space="preserve" text-anchor="middle" x="1045.25" y="-346.5" font-family="Helvetica,sans-Serif" font-size="10.00">WeaponExecutionContext.generated.h</text>
</a>
</g>
</g>
<!-- Node10&#45;&gt;Node25 -->
<g id="edge33_Node000010_Node000025" class="edge">
<title>Node10&#45;&gt;Node25</title>
<g id="a_edge33_Node000010_Node000025"><a xlink:title=" ">
<path fill="none" stroke="#63b8ff" d="M937.89,-395.59C958.37,-387.09 988.77,-374.46 1012,-364.81"/>
<polygon fill="#63b8ff" stroke="#63b8ff" points="1013.14,-368.13 1021.03,-361.06 1010.45,-361.66 1013.14,-368.13"/>
</a>
</g>
</g>
<!-- Node11&#45;&gt;Node3 -->
<g id="edge15_Node000011_Node000003" class="edge">
<title>Node11&#45;&gt;Node3</title>
<g id="a_edge15_Node000011_Node000003"><a xlink:title=" ">
<path fill="none" stroke="#63b8ff" d="M738.68,-339.54C717.83,-333.09 696.81,-322.24 684.25,-304 676.18,-292.29 676.04,-283.61 684.25,-272 712.02,-232.76 741.44,-253.41 786.25,-236 901.69,-191.14 1036.35,-131.75 1096.04,-105.05"/>
<polygon fill="#63b8ff" stroke="#63b8ff" points="1097.21,-108.36 1104.91,-101.08 1094.35,-101.97 1097.21,-108.36"/>
</a>
</g>
</g>
<!-- Node12 -->
<g id="Node000012" class="node">
<title>Node12</title>
<g id="a_Node000012"><a xlink:title=" ">
<polygon fill="#e0e0e0" stroke="#999999" points="1099.12,-298 1007.38,-298 1007.38,-278 1099.12,-278 1099.12,-298"/>
<text xml:space="preserve" text-anchor="middle" x="1053.25" y="-284.5" font-family="Helvetica,sans-Serif" font-size="10.00">UObject/Object.h</text>
</a>
</g>
</g>
<!-- Node11&#45;&gt;Node12 -->
<g id="edge16_Node000011_Node000012" class="edge">
<title>Node11&#45;&gt;Node12</title>
<g id="a_edge16_Node000011_Node000012"><a xlink:title=" ">
<path fill="none" stroke="#63b8ff" d="M845.58,-339.58C885.37,-330.81 945.93,-317.13 998.25,-304 1001.55,-303.17 1004.96,-302.29 1008.38,-301.4"/>
<polygon fill="#63b8ff" stroke="#63b8ff" points="1009.05,-304.84 1017.81,-298.89 1007.25,-298.08 1009.05,-304.84"/>
</a>
</g>
</g>
<!-- Node13 -->
<g id="Node000013" class="node">
<title>Node13</title>
<g id="a_Node000013"><a xlink:title=" ">
<polygon fill="#e0e0e0" stroke="#999999" points="775.25,-298 693.25,-298 693.25,-278 775.25,-278 775.25,-298"/>
<text xml:space="preserve" text-anchor="middle" x="734.25" y="-284.5" font-family="Helvetica,sans-Serif" font-size="10.00">Engine/World.h</text>
</a>
</g>
</g>
<!-- Node11&#45;&gt;Node13 -->
<g id="edge17_Node000011_Node000013" class="edge">
<title>Node11&#45;&gt;Node13</title>
<g id="a_edge17_Node000011_Node000013"><a xlink:title=" ">
<path fill="none" stroke="#63b8ff" d="M791.62,-339.62C781.29,-330.5 765.35,-316.45 752.9,-305.46"/>
<polygon fill="#63b8ff" stroke="#63b8ff" points="755.53,-303.11 745.71,-299.11 750.9,-308.35 755.53,-303.11"/>
</a>
</g>
</g>
<!-- Node11&#45;&gt;Node14 -->
<g id="edge18_Node000011_Node000014" class="edge">
<title>Node11&#45;&gt;Node14</title>
<g id="a_edge18_Node000011_Node000014"><a xlink:title=" ">
<path fill="none" stroke="#63b8ff" d="M767.72,-339.62C735.87,-330.98 687.71,-317.9 648.31,-307.21"/>
<polygon fill="#63b8ff" stroke="#63b8ff" points="649.47,-303.9 638.91,-304.65 647.64,-310.65 649.47,-303.9"/>
</a>
</g>
</g>
<!-- Node24 -->
<g id="Node000024" class="node">
<title>Node24</title>
<g id="a_Node000024"><a xlink:title=" ">
<polygon fill="#e0e0e0" stroke="#999999" points="989.62,-298 792.88,-298 792.88,-278 989.62,-278 989.62,-298"/>
<text xml:space="preserve" text-anchor="middle" x="891.25" y="-284.5" font-family="Helvetica,sans-Serif" font-size="10.00">WeaponAssetCharacteristics.generated.h</text>
</a>
</g>
</g>
<!-- Node11&#45;&gt;Node24 -->
<g id="edge32_Node000011_Node000024" class="edge">
<title>Node11&#45;&gt;Node24</title>
<g id="a_edge32_Node000011_Node000024"><a xlink:title=" ">
<path fill="none" stroke="#63b8ff" d="M816.16,-339.62C830,-330.29 851.51,-315.79 867.96,-304.7"/>
<polygon fill="#63b8ff" stroke="#63b8ff" points="869.85,-307.65 876.19,-299.16 865.94,-301.84 869.85,-307.65"/>
</a>
</g>
</g>
<!-- Node14&#45;&gt;Node3 -->
<g id="edge19_Node000014_Node000003" class="edge">
<title>Node14&#45;&gt;Node3</title>
<g id="a_edge19_Node000014_Node000003"><a xlink:title=" ">
<path fill="none" stroke="#63b8ff" d="M584.74,-271.69C589.11,-255.77 598.06,-231.12 614.25,-216 681.61,-153.09 959.69,-111.88 1075.87,-97.1"/>
<polygon fill="#63b8ff" stroke="#63b8ff" points="1076.27,-100.58 1085.75,-95.86 1075.4,-93.63 1076.27,-100.58"/>
</a>
</g>
</g>
<!-- Node14&#45;&gt;Node15 -->
<g id="edge20_Node000014_Node000015" class="edge">
<title>Node14&#45;&gt;Node15</title>
<g id="a_edge20_Node000014_Node000015"><a xlink:title=" ">
<path fill="none" stroke="#63b8ff" d="M563.22,-271.55C553.3,-263.04 540.97,-252.48 530.81,-243.77"/>
<polygon fill="#63b8ff" stroke="#63b8ff" points="533.25,-241.24 523.38,-237.39 528.69,-246.56 533.25,-241.24"/>
</a>
</g>
</g>
<!-- Node23 -->
<g id="Node000023" class="node">
<title>Node23</title>
<g id="a_Node000023"><a xlink:title=" ">
<polygon fill="#e0e0e0" stroke="#999999" points="777.62,-236 622.88,-236 622.88,-216 777.62,-216 777.62,-236"/>
<text xml:space="preserve" text-anchor="middle" x="700.25" y="-222.5" font-family="Helvetica,sans-Serif" font-size="10.00">ModificationApplied.generated.h</text>
</a>
</g>
</g>
<!-- Node14&#45;&gt;Node23 -->
<g id="edge31_Node000014_Node000023" class="edge">
<title>Node14&#45;&gt;Node23</title>
<g id="a_edge31_Node000014_Node000023"><a xlink:title=" ">
<path fill="none" stroke="#63b8ff" d="M611.9,-271.55C630.23,-262.3 653.39,-250.63 671.4,-241.55"/>
<polygon fill="#63b8ff" stroke="#63b8ff" points="672.89,-244.72 680.24,-237.09 669.73,-238.47 672.89,-244.72"/>
</a>
</g>
</g>
<!-- Node15&#45;&gt;Node3 -->
<g id="edge21_Node000015_Node000003" class="edge">
<title>Node15&#45;&gt;Node3</title>
<g id="a_edge21_Node000015_Node000003"><a xlink:title=" ">
<path fill="none" stroke="#63b8ff" d="M539.99,-215.62C562.96,-207.6 595.61,-194.99 622.25,-180 643.01,-168.32 643.14,-156.86 665.25,-148 738.92,-118.47 971.54,-100.7 1075.81,-94.03"/>
<polygon fill="#63b8ff" stroke="#63b8ff" points="1076.01,-97.52 1085.77,-93.4 1075.57,-90.53 1076.01,-97.52"/>
</a>
</g>
</g>
<!-- Node16 -->
<g id="Node000016" class="node">
<title>Node16</title>
<g id="a_Node000016"><a xlink:title=" ">
<polygon fill="#e0e0e0" stroke="#999999" points="440.12,-26 336.38,-26 336.38,-6 440.12,-6 440.12,-26"/>
<text xml:space="preserve" text-anchor="middle" x="388.25" y="-12.5" font-family="Helvetica,sans-Serif" font-size="10.00">Engine/DataAsset.h</text>
</a>
</g>
</g>
<!-- Node15&#45;&gt;Node16 -->
<g id="edge22_Node000015_Node000016" class="edge">
<title>Node15&#45;&gt;Node16</title>
<g id="a_edge22_Node000015_Node000016"><a xlink:title=" ">
<path fill="none" stroke="#63b8ff" d="M491.34,-215.6C476.96,-207.87 458.07,-195.67 446.25,-180 414.6,-138.03 426.29,-117.37 408.25,-68 404.49,-57.7 400.05,-46.33 396.32,-36.95"/>
<polygon fill="#63b8ff" stroke="#63b8ff" points="399.6,-35.73 392.63,-27.75 393.11,-38.34 399.6,-35.73"/>
</a>
</g>
</g>
<!-- Node15&#45;&gt;Node17 -->
<g id="edge23_Node000015_Node000017" class="edge">
<title>Node15&#45;&gt;Node17</title>
<g id="a_edge23_Node000015_Node000017"><a xlink:title=" ">
<path fill="none" stroke="#63b8ff" d="M477.81,-215.62C447.32,-207.08 401.38,-194.19 363.47,-183.57"/>
<polygon fill="#63b8ff" stroke="#63b8ff" points="364.53,-180.23 353.96,-180.9 362.64,-186.97 364.53,-180.23"/>
</a>
</g>
</g>
<!-- Node22 -->
<g id="Node000022" class="node">
<title>Node22</title>
<g id="a_Node000022"><a xlink:title=" ">
<polygon fill="#e0e0e0" stroke="#999999" points="613.12,-174 455.38,-174 455.38,-154 613.12,-154 613.12,-174"/>
<text xml:space="preserve" text-anchor="middle" x="534.25" y="-160.5" font-family="Helvetica,sans-Serif" font-size="10.00">WeaponArchitecture.generated.h</text>
</a>
</g>
</g>
<!-- Node15&#45;&gt;Node22 -->
<g id="edge30_Node000015_Node000022" class="edge">
<title>Node15&#45;&gt;Node22</title>
<g id="a_edge30_Node000015_Node000022"><a xlink:title=" ">
<path fill="none" stroke="#63b8ff" d="M514.84,-215.62C518,-207.39 522.7,-195.13 526.68,-184.74"/>
<polygon fill="#63b8ff" stroke="#63b8ff" points="529.9,-186.12 530.22,-175.53 523.37,-183.61 529.9,-186.12"/>
</a>
</g>
</g>
<!-- Node17&#45;&gt;Node3 -->
<g id="edge24_Node000017_Node000003" class="edge">
<title>Node17&#45;&gt;Node3</title>
<g id="a_edge24_Node000017_Node000003"><a xlink:title=" ">
<path fill="none" stroke="#63b8ff" d="M361,-150.12C365.81,-149.34 370.6,-148.62 375.25,-148 637.69,-112.94 954.76,-97.7 1076.39,-92.85"/>
<polygon fill="#63b8ff" stroke="#63b8ff" points="1076.17,-96.36 1086.03,-92.47 1075.9,-89.36 1076.17,-96.36"/>
</a>
</g>
</g>
<!-- Node18 -->
<g id="Node000018" class="node">
<title>Node18</title>
<g id="a_Node000018"><a xlink:href="../../d5/d8d/_modification_description_data_asset_8h.html" target="_top" xlink:title=" ">
<polygon fill="white" stroke="#666666" points="211.5,-112 59,-112 59,-68 211.5,-68 211.5,-112"/>
<text xml:space="preserve" text-anchor="start" x="67" y="-98.5" font-family="Helvetica,sans-Serif" font-size="10.00">Miscellaneous/Description</text>
<text xml:space="preserve" text-anchor="start" x="67" y="-86.5" font-family="Helvetica,sans-Serif" font-size="10.00">Structs/ModificationDescription</text>
<text xml:space="preserve" text-anchor="middle" x="135.25" y="-74.5" font-family="Helvetica,sans-Serif" font-size="10.00">DataAsset.h</text>
</a>
</g>
</g>
<!-- Node17&#45;&gt;Node18 -->
<g id="edge25_Node000017_Node000018" class="edge">
<title>Node17&#45;&gt;Node18</title>
<g id="a_edge25_Node000017_Node000018"><a xlink:title=" ">
<path fill="none" stroke="#63b8ff" d="M262.5,-147.55C242.5,-138.67 216.85,-127.27 193.83,-117.04"/>
<polygon fill="#63b8ff" stroke="#63b8ff" points="195.41,-113.91 184.85,-113.04 192.56,-120.3 195.41,-113.91"/>
</a>
</g>
</g>
<!-- Node21 -->
<g id="Node000021" class="node">
<title>Node21</title>
<g id="a_Node000021"><a xlink:title=" ">
<polygon fill="#e0e0e0" stroke="#999999" points="399.12,-100 229.38,-100 229.38,-80 399.12,-80 399.12,-100"/>
<text xml:space="preserve" text-anchor="middle" x="314.25" y="-86.5" font-family="Helvetica,sans-Serif" font-size="10.00">ModificationStructData.generated.h</text>
</a>
</g>
</g>
<!-- Node17&#45;&gt;Node21 -->
<g id="edge29_Node000017_Node000021" class="edge">
<title>Node17&#45;&gt;Node21</title>
<g id="a_edge29_Node000017_Node000021"><a xlink:title=" ">
<path fill="none" stroke="#63b8ff" d="M300.86,-147.73C303.35,-137.18 306.69,-123.03 309.41,-111.5"/>
<polygon fill="#63b8ff" stroke="#63b8ff" points="312.81,-112.32 311.7,-101.78 306,-110.71 312.81,-112.32"/>
</a>
</g>
</g>
<!-- Node18&#45;&gt;Node16 -->
<g id="edge26_Node000018_Node000016" class="edge">
<title>Node18&#45;&gt;Node16</title>
<g id="a_edge26_Node000018_Node000016"><a xlink:title=" ">
<path fill="none" stroke="#63b8ff" d="M210.47,-67.59C254.03,-55.2 307.36,-40.02 344.18,-29.54"/>
<polygon fill="#63b8ff" stroke="#63b8ff" points="344.93,-32.97 353.6,-26.86 343.02,-26.23 344.93,-32.97"/>
</a>
</g>
</g>
<!-- Node19 -->
<g id="Node000019" class="node">
<title>Node19</title>
<g id="a_Node000019"><a xlink:title=" ">
<polygon fill="#e0e0e0" stroke="#999999" points="122.5,-26 0,-26 0,-6 122.5,-6 122.5,-26"/>
<text xml:space="preserve" text-anchor="middle" x="61.25" y="-12.5" font-family="Helvetica,sans-Serif" font-size="10.00">UObject/SoftObjectPtr.h</text>
</a>
</g>
</g>
<!-- Node18&#45;&gt;Node19 -->
<g id="edge27_Node000018_Node000019" class="edge">
<title>Node18&#45;&gt;Node19</title>
<g id="a_edge27_Node000018_Node000019"><a xlink:title=" ">
<path fill="none" stroke="#63b8ff" d="M113.45,-67.79C102.5,-57.14 89.4,-44.39 79.07,-34.34"/>
<polygon fill="#63b8ff" stroke="#63b8ff" points="81.51,-31.83 71.9,-27.37 76.63,-36.85 81.51,-31.83"/>
</a>
</g>
</g>
<!-- Node20 -->
<g id="Node000020" class="node">
<title>Node20</title>
<g id="a_Node000020"><a xlink:title=" ">
<polygon fill="#e0e0e0" stroke="#999999" points="279.75,-32 140.75,-32 140.75,0 279.75,0 279.75,-32"/>
<text xml:space="preserve" text-anchor="start" x="148.75" y="-18.5" font-family="Helvetica,sans-Serif" font-size="10.00">ModificationDescriptionData</text>
<text xml:space="preserve" text-anchor="middle" x="210.25" y="-6.5" font-family="Helvetica,sans-Serif" font-size="10.00">Asset.generated.h</text>
</a>
</g>
</g>
<!-- Node18&#45;&gt;Node20 -->
<g id="edge28_Node000018_Node000020" class="edge">
<title>Node18&#45;&gt;Node20</title>
<g id="a_edge28_Node000018_Node000020"><a xlink:title=" ">
<path fill="none" stroke="#63b8ff" d="M157.35,-67.79C166.48,-59.02 177.08,-48.84 186.39,-39.91"/>
<polygon fill="#63b8ff" stroke="#63b8ff" points="188.61,-42.62 193.4,-33.17 183.76,-37.58 188.61,-42.62"/>
</a>
</g>
</g>
<!-- Node34&#45;&gt;Node3 -->
<g id="edge47_Node000034_Node000003" class="edge">
<title>Node34&#45;&gt;Node3</title>
<g id="a_edge47_Node000034_Node000003"><a xlink:title=" ">
<path fill="none" stroke="#63b8ff" d="M1401.74,-629.13C1470.23,-619.13 1563.25,-592.09 1563.25,-519 1563.25,-519 1563.25,-519 1563.25,-225 1563.25,-145.28 1293.57,-108.07 1178.4,-95.82"/>
<polygon fill="#63b8ff" stroke="#63b8ff" points="1178.91,-92.35 1168.6,-94.8 1178.19,-99.31 1178.91,-92.35"/>
</a>
</g>
</g>
<!-- Node34&#45;&gt;Node4 -->
<g id="edge50_Node000034_Node000004" class="edge">
<title>Node34&#45;&gt;Node4</title>
<g id="a_edge50_Node000034_Node000004"><a xlink:title=" ">
<path fill="none" stroke="#63b8ff" d="M1268.57,-625.56C1198.84,-614.89 1085.41,-597.52 1011.31,-586.18"/>
<polygon fill="#63b8ff" stroke="#63b8ff" points="1012.13,-582.77 1001.71,-584.71 1011.07,-589.69 1012.13,-582.77"/>
</a>
</g>
</g>
<!-- Node34&#45;&gt;Node5 -->
<g id="edge48_Node000034_Node000005" class="edge">
<title>Node34&#45;&gt;Node5</title>
<g id="a_edge48_Node000034_Node000005"><a xlink:title=" ">
<path fill="none" stroke="#63b8ff" d="M1258.9,-631.53C1211.79,-626.35 1150.46,-613.84 1104.25,-584 1086.84,-572.76 1073.3,-553.07 1064.91,-538.3"/>
<polygon fill="#63b8ff" stroke="#63b8ff" points="1068.02,-536.7 1060.23,-529.52 1061.84,-539.99 1068.02,-536.7"/>
</a>
</g>
</g>
<!-- Node34&#45;&gt;Node8 -->
<g id="edge49_Node000034_Node000008" class="edge">
<title>Node34&#45;&gt;Node8</title>
<g id="a_edge49_Node000034_Node000008"><a xlink:title=" ">
<path fill="none" stroke="#63b8ff" d="M1329.2,-625.74C1327.31,-611.66 1322.42,-584.36 1311.25,-564 1300.81,-544.97 1286.53,-548.06 1278.25,-528 1264.58,-494.9 1266.89,-452.29 1269.96,-427.47"/>
<polygon fill="#63b8ff" stroke="#63b8ff" points="1273.4,-428.15 1271.35,-417.76 1266.47,-427.16 1273.4,-428.15"/>
</a>
</g>
</g>
<!-- Node34&#45;&gt;Node27 -->
<g id="edge59_Node000034_Node000027" class="edge">
<title>Node34&#45;&gt;Node27</title>
<g id="a_edge59_Node000034_Node000027"><a xlink:title=" ">
<path fill="none" stroke="#63b8ff" d="M1259.98,-625.52C1211.23,-617.34 1152.42,-603.7 1137.25,-584 1113.46,-553.1 1139.8,-506.54 1157.97,-481.12"/>
<polygon fill="#63b8ff" stroke="#63b8ff" points="1160.54,-483.52 1163.73,-473.42 1154.94,-479.33 1160.54,-483.52"/>
</a>
</g>
</g>
<!-- Node34&#45;&gt;Node29 -->
<g id="edge51_Node000034_Node000029" class="edge">
<title>Node34&#45;&gt;Node29</title>
<g id="a_edge51_Node000034_Node000029"><a xlink:title=" ">
<path fill="none" stroke="#63b8ff" d="M1401.68,-629.12C1452.55,-622.85 1521.51,-610.03 1577.25,-584 1602.57,-572.18 1627.06,-551.1 1642.59,-536.15"/>
<polygon fill="#63b8ff" stroke="#63b8ff" points="1644.92,-538.77 1649.55,-529.24 1639.99,-533.8 1644.92,-538.77"/>
</a>
</g>
</g>
<!-- Node35 -->
<g id="Node000035" class="node">
<title>Node35</title>
<g id="a_Node000035"><a xlink:href="../../d0/df9/_node_pin_compatibility_8h.html" target="_top" xlink:title=" ">
<polygon fill="white" stroke="#666666" points="1812.88,-584 1629.62,-584 1629.62,-564 1812.88,-564 1812.88,-584"/>
<text xml:space="preserve" text-anchor="middle" x="1721.25" y="-570.5" font-family="Helvetica,sans-Serif" font-size="10.00">Miscellaneous/NodePinCompatibility.h</text>
</a>
</g>
</g>
<!-- Node34&#45;&gt;Node35 -->
<g id="edge52_Node000034_Node000035" class="edge">
<title>Node34&#45;&gt;Node35</title>
<g id="a_edge52_Node000034_Node000035"><a xlink:title=" ">
<path fill="none" stroke="#63b8ff" d="M1391.77,-625.56C1461.32,-614.89 1574.46,-597.52 1648.38,-586.18"/>
<polygon fill="#63b8ff" stroke="#63b8ff" points="1648.59,-589.69 1657.94,-584.71 1647.53,-582.77 1648.59,-589.69"/>
</a>
</g>
</g>
<!-- Node36 -->
<g id="Node000036" class="node">
<title>Node36</title>
<g id="a_Node000036"><a xlink:href="../../d2/db8/_type_definition_8h.html" target="_top" xlink:title=" ">
<polygon fill="white" stroke="#666666" points="1510.12,-584 1358.38,-584 1358.38,-564 1510.12,-564 1510.12,-584"/>
<text xml:space="preserve" text-anchor="middle" x="1434.25" y="-570.5" font-family="Helvetica,sans-Serif" font-size="10.00">Miscellaneous/TypeDefinition.h</text>
</a>
</g>
</g>
<!-- Node34&#45;&gt;Node36 -->
<g id="edge55_Node000034_Node000036" class="edge">
<title>Node34&#45;&gt;Node36</title>
<g id="a_edge55_Node000034_Node000036"><a xlink:title=" ">
<path fill="none" stroke="#63b8ff" d="M1346.5,-625.62C1363.06,-616.07 1389,-601.11 1408.39,-589.92"/>
<polygon fill="#63b8ff" stroke="#63b8ff" points="1409.89,-593.09 1416.8,-585.07 1406.39,-587.03 1409.89,-593.09"/>
</a>
</g>
</g>
<!-- Node39 -->
<g id="Node000039" class="node">
<title>Node39</title>
<g id="a_Node000039"><a xlink:title=" ">
<polygon fill="#e0e0e0" stroke="#999999" points="1973.62,-584 1830.88,-584 1830.88,-564 1973.62,-564 1973.62,-584"/>
<text xml:space="preserve" text-anchor="middle" x="1902.25" y="-570.5" font-family="Helvetica,sans-Serif" font-size="10.00">StructUtils/InstancedStruct.h</text>
</a>
</g>
</g>
<!-- Node34&#45;&gt;Node39 -->
<g id="edge58_Node000034_Node000039" class="edge">
<title>Node34&#45;&gt;Node39</title>
<g id="a_edge58_Node000034_Node000039"><a xlink:title=" ">
<path fill="none" stroke="#63b8ff" d="M1401.56,-627.81C1495.05,-618.33 1664.45,-601.01 1819.58,-584.28"/>
<polygon fill="#63b8ff" stroke="#63b8ff" points="1819.65,-587.79 1829.22,-583.24 1818.9,-580.83 1819.65,-587.79"/>
</a>
</g>
</g>
<!-- Node40 -->
<g id="Node000040" class="node">
<title>Node40</title>
<g id="a_Node000040"><a xlink:title=" ">
<polygon fill="#e0e0e0" stroke="#999999" points="1302.38,-584 1146.12,-584 1146.12,-564 1302.38,-564 1302.38,-584"/>
<text xml:space="preserve" text-anchor="middle" x="1224.25" y="-570.5" font-family="Helvetica,sans-Serif" font-size="10.00">WeaponRuntimePin.generated.h</text>
</a>
</g>
</g>
<!-- Node34&#45;&gt;Node40 -->
<g id="edge60_Node000034_Node000040" class="edge">
<title>Node34&#45;&gt;Node40</title>
<g id="a_edge60_Node000034_Node000040"><a xlink:title=" ">
<path fill="none" stroke="#63b8ff" d="M1313.69,-625.62C1296.81,-616.07 1270.37,-601.11 1250.61,-589.92"/>
<polygon fill="#63b8ff" stroke="#63b8ff" points="1252.44,-586.93 1242.01,-585.05 1248.99,-593.03 1252.44,-586.93"/>
</a>
</g>
</g>
<!-- Node35&#45;&gt;Node3 -->
<g id="edge53_Node000035_Node000003" class="edge">
<title>Node35&#45;&gt;Node3</title>
<g id="a_edge53_Node000035_Node000003"><a xlink:title=" ">
<path fill="none" stroke="#63b8ff" d="M1726.27,-563.59C1735.72,-544.95 1755.25,-501.78 1755.25,-463 1755.25,-463 1755.25,-463 1755.25,-225 1755.25,-107.25 1327.63,-92.59 1178.12,-91.06"/>
<polygon fill="#63b8ff" stroke="#63b8ff" points="1178.55,-87.56 1168.52,-90.98 1178.49,-94.56 1178.55,-87.56"/>
</a>
</g>
</g>
<!-- Node35&#45;&gt;Node29 -->
<g id="edge54_Node000035_Node000029" class="edge">
<title>Node35&#45;&gt;Node29</title>
<g id="a_edge54_Node000035_Node000029"><a xlink:title=" ">
<path fill="none" stroke="#63b8ff" d="M1710.45,-563.59C1701.65,-555.93 1689,-544.91 1678.48,-535.75"/>
<polygon fill="#63b8ff" stroke="#63b8ff" points="1680.91,-533.22 1671.07,-529.29 1676.31,-538.5 1680.91,-533.22"/>
</a>
</g>
</g>
<!-- Node37 -->
<g id="Node000037" class="node">
<title>Node37</title>
<g id="a_Node000037"><a xlink:title=" ">
<polygon fill="#e0e0e0" stroke="#999999" points="1534.75,-528 1437.75,-528 1437.75,-508 1534.75,-508 1534.75,-528"/>
<text xml:space="preserve" text-anchor="middle" x="1486.25" y="-514.5" font-family="Helvetica,sans-Serif" font-size="10.00">Containers/Array.h</text>
</a>
</g>
</g>
<!-- Node36&#45;&gt;Node37 -->
<g id="edge56_Node000036_Node000037" class="edge">
<title>Node36&#45;&gt;Node37</title>
<g id="a_edge56_Node000036_Node000037"><a xlink:title=" ">
<path fill="none" stroke="#63b8ff" d="M1443.31,-563.59C1450.47,-556.16 1460.66,-545.58 1469.32,-536.58"/>
<polygon fill="#63b8ff" stroke="#63b8ff" points="1471.83,-539.02 1476.25,-529.39 1466.79,-534.16 1471.83,-539.02"/>
</a>
</g>
</g>
<!-- Node38 -->
<g id="Node000038" class="node">
<title>Node38</title>
<g id="a_Node000038"><a xlink:title=" ">
<polygon fill="#e0e0e0" stroke="#999999" points="1419.75,-528 1286.75,-528 1286.75,-508 1419.75,-508 1419.75,-528"/>
<text xml:space="preserve" text-anchor="middle" x="1353.25" y="-514.5" font-family="Helvetica,sans-Serif" font-size="10.00">UObject/StrongObjectPtr.h</text>
</a>
</g>
</g>
<!-- Node36&#45;&gt;Node38 -->
<g id="edge57_Node000036_Node000038" class="edge">
<title>Node36&#45;&gt;Node38</title>
<g id="a_edge57_Node000036_Node000038"><a xlink:title=" ">
<path fill="none" stroke="#63b8ff" d="M1420.14,-563.59C1408.25,-555.67 1390.98,-544.16 1376.97,-534.82"/>
<polygon fill="#63b8ff" stroke="#63b8ff" points="1378.99,-531.95 1368.73,-529.32 1375.11,-537.78 1378.99,-531.95"/>
</a>
</g>
</g>
</g>
</svg>

<g id="navigator" transform="translate(0 0)" fill="#404254">
  <rect fill="#f2f5e9" fill-opacity="0.5" stroke="#606060" stroke-width=".5" x="0" y="0" width="60" height="60"/>
  <use id="zoomplus" xlink:href="#zoomPlus" x="17" y="9" onmousedown="handleZoom(evt,'in')"/>
  <use id="zoomminus" xlink:href="#zoomMin" x="42" y="9" onmousedown="handleZoom(evt,'out')"/>
  <use id="reset" xlink:href="#resetDef" x="30" y="36" onmousedown="handleReset()"/>
   <use id="arrowup" xlink:href="#arrowUp" x="0" y="0" onmousedown="handlePan(0,-1)"/>
  <use id="arrowright" xlink:href="#arrowRight" x="0" y="0" onmousedown="handlePan(1,0)"/>
  <use id="arrowdown" xlink:href="#arrowDown" x="0" y="0" onmousedown="handlePan(0,1)"/>
  <use id="arrowleft" xlink:href="#arrowLeft" x="0" y="0" onmousedown="handlePan(-1,0)"/>
</g>
<svg viewBox="0 0 15 15" width="100%" height="30px" preserveAspectRatio="xMaxYMin meet">
 <g id="arrow_out" transform="scale(0.3 0.3)">
  <a xlink:href="_weapon_set_material_node_8cpp__incl_org.svg" target="_base">
   <rect id="button" ry="5" rx="5" y="6" x="6" height="38" width="38"
        fill="#f2f5e9" fill-opacity="0.5" stroke="#606060" stroke-width="1.0"/>
   <path id="arrow"
     d="M 11.500037,31.436501 C 11.940474,20.09759 22.043105,11.32322 32.158766,21.979434 L 37.068811,17.246167 C 37.068811,17.246167 37.088388,32 37.088388,32 L 22.160133,31.978069 C 22.160133,31.978069 26.997745,27.140456 26.997745,27.140456 C 18.528582,18.264221 13.291696,25.230495 11.500037,31.436501 z"
     style="fill:#404040;"/>
  </a>
 </g>
</svg>

<style type='text/css'>
<![CDATA[
[data-mouse-over-selected='false'] { opacity: 0.7; }
[data-mouse-over-selected='true']  { opacity: 1.0; }
]]>
</style>
<script type="application/ecmascript"><![CDATA[
document.addEventListener('DOMContentLoaded', (event) => {
  highlightEdges();
  highlightAdjacentNodes();
});
]]></script>
</svg>
